<?xml version="1.0" standalone="no"?>
<!DOCTYPE svg PUBLIC "-//W3C//DTD SVG 20010904//EN"
 "http://www.w3.org/TR/2001/REC-SVG-20010904/DTD/svg10.dtd">
<svg version="1.0" xmlns="http://www.w3.org/2000/svg"
 width="499.000000pt" height="499.000000pt" viewBox="0 0 499.000000 499.000000"
 preserveAspectRatio="xMidYMid meet">

<g transform="translate(0.000000,499.000000) scale(0.100000,-0.100000)"
fill="#000000" stroke="none">
<path d="M3235 4699 c-82 -6 -263 -48 -368 -85 -124 -44 -221 -46 -457 -8 -95
15 -346 29 -322 18 31 -14 -9 -41 -42 -28 -14 5 -15 9 -4 15 10 7 9 9 -5 9
-32 0 -164 -49 -272 -100 -103 -50 -107 -54 -287 -234 -101 -100 -210 -202
-243 -226 -33 -25 -93 -73 -133 -108 l-72 -64 1 -86 c0 -48 3 -81 6 -74 7 19
41 14 48 -7 3 -11 -1 -44 -10 -74 -9 -30 -14 -74 -13 -97 3 -46 -15 -67 -25
-29 -5 20 -8 21 -23 9 -13 -12 -15 -26 -9 -84 3 -38 14 -80 23 -94 15 -23 15
-25 -3 -38 -10 -8 -22 -14 -26 -14 -5 0 -7 -33 -5 -72 4 -71 39 -177 65 -193
6 -3 11 -27 11 -53 0 -56 6 -67 43 -76 15 -4 31 -14 34 -24 4 -9 9 -19 12 -22
25 -22 41 -90 22 -90 -14 0 -42 30 -36 40 3 4 -2 11 -11 14 -8 3 -20 20 -26
36 -14 43 -20 32 -23 -45 -1 -46 1 -65 10 -65 7 0 18 -6 24 -14 16 -19 24 -86
10 -86 -6 0 -9 -7 -5 -15 3 -10 -1 -15 -13 -15 -10 0 -19 6 -18 13 0 6 -1 23
-2 37 l-3 25 -7 -25 c-4 -15 -2 -38 6 -57 7 -18 13 -43 13 -56 0 -13 6 -32 14
-42 13 -18 14 -18 26 4 9 17 15 20 23 12 6 -6 19 -11 29 -11 12 0 18 -8 19
-22 0 -14 2 -17 5 -8 3 8 12 39 22 68 13 43 14 56 4 72 -7 12 -8 20 -2 20 15
0 12 37 -4 43 -11 4 -12 15 -5 49 14 68 34 136 42 144 11 11 8 84 -3 84 -6 0
-4 10 4 23 7 12 16 34 20 50 4 15 11 27 16 27 14 0 50 42 44 51 -6 10 56 68
74 69 6 0 12 5 12 11 0 5 14 15 30 20 18 7 30 18 30 29 0 11 9 19 25 22 27 6
33 -10 13 -30 -9 -9 -8 -12 6 -12 9 0 14 5 11 10 -3 6 -1 10 5 10 7 0 10 7 7
15 -4 8 -1 17 4 21 6 4 8 25 5 53 l-6 46 52 34 c49 32 52 33 65 15 8 -11 12
-28 9 -39 -3 -11 -6 -28 -6 -37 0 -10 -8 -18 -17 -18 -9 0 -13 -3 -10 -7 4 -3
2 -12 -4 -19 -12 -14 -3 -54 11 -54 5 0 7 8 3 18 -4 13 -3 14 6 6 8 -7 9 -18
2 -35 -5 -13 -10 -18 -10 -12 -1 7 -16 20 -33 29 -27 14 -31 14 -20 2 10 -13
9 -18 -3 -28 -19 -16 -19 -30 0 -30 8 0 15 -4 15 -10 0 -12 -10 -13 -29 -1 -9
6 -24 5 -40 -2 -32 -13 -91 -67 -88 -80 1 -5 -4 -12 -12 -15 -8 -3 -11 0 -7 7
13 20 -39 12 -62 -9 -24 -23 -27 -35 -12 -45 10 -6 -18 -65 -31 -65 -4 0 -9
-10 -12 -21 -4 -17 -3 -19 6 -10 6 6 18 11 26 11 9 0 6 -7 -10 -21 -13 -11
-23 -27 -21 -35 2 -8 -3 -24 -10 -36 -23 -42 -11 -62 29 -51 14 3 23 1 23 -6
0 -6 -4 -11 -10 -11 -5 0 -10 -5 -10 -11 0 -6 7 -8 16 -5 9 4 23 1 30 -5 12
-10 12 -16 -2 -38 -9 -14 -28 -36 -43 -49 -22 -18 -24 -24 -11 -32 12 -8 11
-13 -9 -34 -13 -13 -20 -29 -16 -35 3 -6 -3 -25 -15 -41 -12 -16 -18 -35 -15
-40 4 -6 3 -10 -2 -9 -20 3 -34 -2 -28 -11 6 -10 -13 -48 -35 -68 -8 -7 -9
-11 -2 -7 6 3 12 2 12 -2 0 -5 -6 -15 -12 -22 -11 -11 -10 -12 1 -6 9 5 12 3
9 -6 -3 -8 -11 -14 -18 -14 -7 0 -15 -6 -18 -14 -3 -8 0 -11 7 -7 23 14 10
-22 -14 -40 -14 -10 -25 -24 -25 -31 0 -21 23 -27 36 -8 8 10 20 15 29 11 10
-4 19 3 27 19 6 14 15 25 20 25 13 0 9 -11 -17 -41 -13 -16 -22 -36 -19 -43 3
-8 -3 -16 -14 -18 -12 -3 -21 -18 -25 -38 -6 -27 -11 -31 -28 -27 -17 4 -30
-3 -56 -31 -30 -33 -34 -35 -44 -19 -5 9 -15 17 -21 17 -7 0 -6 -6 2 -15 11
-13 7 -22 -23 -53 -20 -20 -47 -48 -59 -63 -13 -14 -31 -28 -40 -32 -9 -3 -25
-18 -35 -33 -10 -16 -28 -38 -40 -51 -13 -12 -23 -30 -23 -39 0 -12 9 -7 30
17 16 19 30 37 30 42 0 4 5 7 11 7 7 0 9 -10 5 -25 -5 -20 -3 -23 11 -18 16 6
16 5 5 -10 -8 -9 -12 -24 -9 -34 3 -15 6 -14 14 7 l11 25 7 -28 c5 -21 10 -25
16 -16 4 7 10 11 13 8 8 -7 -17 -59 -27 -59 -5 0 -6 -13 -2 -30 8 -36 -2 -40
-15 -5 -12 31 -40 23 -40 -12 0 -17 -4 -23 -14 -20 -8 3 -18 -5 -25 -19 -11
-25 -30 -32 -32 -11 0 6 -6 -1 -13 -17 l-13 -29 -6 29 c-3 16 -1 37 5 47 7 13
6 23 -1 30 -8 8 -11 5 -11 -10 0 -12 -5 -25 -10 -28 -13 -8 -13 -45 1 -45 5 0
8 -4 5 -9 -3 -5 -15 -7 -26 -4 -14 4 -22 -2 -31 -23 -6 -16 -18 -42 -26 -57
-38 -72 -3 -203 61 -234 29 -13 40 -28 56 -70 11 -30 20 -64 20 -76 0 -25 62
-151 89 -182 9 -11 23 -33 31 -49 8 -16 33 -40 55 -54 45 -29 128 -54 150 -45
20 7 19 -5 -5 -52 -11 -21 -18 -41 -15 -43 12 -12 34 10 40 40 9 39 22 58 41
58 19 0 17 -25 -3 -41 -11 -10 -14 -10 -9 -1 4 6 2 12 -3 12 -7 0 -11 -22 -10
-52 l1 -53 13 30 c8 17 14 36 15 44 0 8 3 12 6 9 3 -4 1 -22 -4 -42 -6 -20 -7
-36 -2 -36 4 0 -1 -28 -11 -61 -18 -56 -18 -64 -4 -85 17 -26 49 -46 59 -37 3
3 6 21 6 39 0 18 5 36 12 40 8 5 9 2 5 -10 -4 -10 -7 -41 -8 -69 0 -29 -3 -46
-6 -38 -4 10 -9 8 -19 -10 -12 -22 -13 -22 -14 -4 0 22 -43 68 -54 58 -3 -3
-6 -21 -6 -38 0 -23 9 -39 30 -58 16 -15 30 -31 30 -36 0 -5 8 -12 19 -16 10
-3 33 -19 50 -35 17 -17 38 -30 46 -30 8 0 15 -4 15 -10 0 -5 15 -17 33 -25
17 -9 48 -25 67 -36 19 -10 48 -19 63 -19 15 0 41 -7 56 -15 16 -8 31 -12 34
-9 9 9 62 11 79 2 9 -4 19 -4 23 1 7 12 45 10 45 -1 0 -5 9 -3 20 4 17 11 22
10 29 0 11 -18 22 -17 34 3 8 14 11 15 18 4 5 -8 9 -24 9 -36 0 -12 5 -25 12
-29 8 -5 9 1 5 22 -7 36 0 49 31 56 18 5 22 2 22 -17 0 -13 4 -26 8 -29 5 -3
7 7 4 23 -4 32 10 46 58 55 62 11 75 14 78 16 1 2 7 3 12 4 6 0 14 6 18 11 4
6 20 12 35 13 16 1 44 9 62 18 19 9 38 13 43 10 4 -2 21 6 36 19 16 14 37 27
47 30 11 4 19 11 19 16 0 5 7 9 15 9 8 0 15 4 15 9 0 5 18 11 39 15 28 4 42
12 46 27 4 11 12 18 19 16 7 -3 24 11 37 32 17 27 29 36 44 34 15 -3 32 11 65
52 24 31 45 66 45 78 0 12 5 22 12 22 6 0 14 3 18 7 4 4 14 4 23 1 14 -5 15
-3 5 7 -6 7 -32 14 -57 15 -37 1 -44 -1 -34 -12 8 -11 7 -12 -6 -7 -9 3 -16
10 -16 14 0 4 -7 11 -16 14 -14 5 -15 4 -4 -9 9 -11 9 -15 1 -15 -7 0 -9 -5
-5 -12 4 -8 3 -10 -2 -5 -5 5 -9 13 -9 19 0 6 -10 14 -22 19 -13 5 -22 5 -22
1 3 -19 -2 -23 -16 -12 -9 7 -19 10 -22 6 -4 -4 -1 -11 7 -16 28 -17 -8 -30
-83 -31 -15 0 -44 13 -65 28 l-37 27 34 -37 c48 -51 22 -47 -37 5 -26 24 -38
31 -26 18 12 -14 24 -33 27 -43 5 -14 2 -16 -20 -12 -29 5 -61 31 -50 41 3 3
13 -1 22 -10 9 -9 19 -16 23 -16 11 0 -72 74 -85 76 -20 3 -15 -10 17 -51 17
-21 30 -41 30 -45 0 -13 -54 -23 -58 -10 -3 7 -9 5 -16 -6 -11 -15 -14 -15
-30 2 -15 14 -19 15 -27 3 -7 -11 -9 -11 -9 -1 0 8 -5 10 -12 6 -8 -5 -9 -1
-4 12 5 13 4 16 -3 9 -7 -7 -8 -22 -1 -45 17 -60 11 -57 -15 5 -29 70 -32 93
-11 73 8 -7 12 -17 9 -22 -3 -4 7 0 23 10 15 11 25 14 22 9 -4 -6 -2 -17 4
-25 8 -12 9 -12 4 3 -3 9 -2 17 3 17 4 0 6 11 3 25 -2 15 -9 22 -16 18 -6 -3
-8 -2 -3 2 4 5 -1 17 -10 28 -18 20 -18 20 16 1 18 -10 37 -29 41 -41 11 -26
26 -37 35 -23 3 5 -11 26 -31 45 -20 20 -34 38 -31 42 4 3 2 13 -3 23 -8 14
-5 16 15 12 14 -2 25 -7 25 -11 0 -3 9 -17 21 -31 l20 -25 -18 38 c-9 20 -20
37 -25 37 -10 0 -44 34 -51 51 -3 8 -6 4 -6 -9 -1 -20 -4 -21 -21 -12 -26 14
-38 -11 -22 -43 6 -12 13 -32 15 -45 7 -31 -12 -17 -29 22 -7 17 -13 25 -14
17 0 -11 -3 -11 -15 -1 -24 20 -29 5 -9 -27 l18 -28 -25 22 c-17 15 -29 19
-39 13 -8 -5 -17 -7 -21 -4 -4 2 -11 -1 -15 -7 -4 -8 -9 -7 -15 2 -14 23 -11
42 7 35 8 -3 13 -2 11 2 -5 9 30 42 37 35 3 -3 13 0 21 7 13 11 13 15 3 21
-10 7 -10 9 0 9 6 0 12 9 12 19 0 11 4 21 8 23 4 2 34 40 66 86 31 45 63 82
70 82 8 0 12 9 9 23 -3 14 2 29 11 36 9 8 16 21 16 31 0 10 9 20 20 23 12 3
20 14 20 26 0 12 5 21 10 21 6 0 10 11 10 25 0 14 4 25 10 25 5 0 7 7 3 15 -3
9 2 22 13 30 15 11 17 16 7 26 -19 19 -16 29 10 30 21 0 21 1 2 9 -18 8 -18 9
5 10 15 1 19 4 10 7 -8 2 -22 7 -30 10 -11 3 -9 8 10 18 14 7 29 11 35 7 5 -3
1 4 -9 16 -13 15 -15 22 -6 22 9 0 11 9 7 30 -4 16 -3 29 1 29 19 -3 25 2 12
11 -11 7 -11 10 -2 10 7 0 10 5 7 10 -4 6 -10 8 -14 5 -5 -2 -17 5 -27 18 -10
12 -15 19 -10 15 5 -4 16 0 25 9 11 12 13 17 3 21 -20 6 -14 22 16 34 21 9 23
12 10 15 -16 4 -16 6 -3 19 20 20 19 34 -1 34 -13 0 -14 3 -4 15 6 8 9 18 6
24 -4 5 3 12 14 16 11 3 20 15 20 26 0 10 0 22 0 27 0 11 55 23 58 12 2 -6 13
-10 25 -10 18 0 19 2 7 10 -11 7 -11 10 -2 10 7 0 11 4 7 9 -3 5 3 11 12 14
14 3 9 8 -17 20 -19 9 -28 16 -20 16 8 0 26 -6 40 -14 28 -16 54 -20 46 -6 -3
5 2 8 12 7 9 0 23 -11 30 -23 14 -26 53 -31 74 -10 15 15 34 12 63 -12 20 -16
20 -16 1 6 -15 18 -16 26 -7 37 10 12 8 14 -11 10 -21 -4 -21 -4 -3 5 13 5 29
4 48 -6 32 -16 34 -11 6 28 -21 31 -19 33 29 32 6 -1 12 3 12 8 0 5 -4 9 -9 9
-5 0 -17 12 -26 26 -17 26 -17 27 4 21 11 -3 19 -1 15 4 -8 13 10 11 26 -3 8
-7 4 -1 -9 14 -13 15 -27 25 -32 23 -4 -3 -10 -1 -14 5 -4 6 -11 7 -17 4 -7
-4 -8 -2 -4 5 4 6 2 18 -4 26 -8 10 -9 15 -2 15 6 0 14 -4 17 -10 3 -5 12 -10
18 -10 8 0 8 3 2 8 -6 4 -21 24 -33 45 -19 33 -20 37 -4 37 15 0 15 2 2 10
-11 7 -12 10 -2 10 8 0 16 -9 19 -20 3 -11 9 -18 13 -15 16 10 38 -7 50 -36
12 -29 33 -38 45 -19 4 6 11 8 16 5 22 -15 6 20 -25 51 -35 35 -38 48 -4 17
10 -9 29 -17 42 -18 l24 -1 -20 25 c-18 24 -18 26 -1 32 25 9 38 2 53 -27 7
-13 18 -24 23 -24 5 0 4 7 -3 15 -11 13 -8 15 14 15 15 0 25 5 24 13 -2 6 4
13 12 13 39 4 43 6 21 13 -14 4 -26 12 -29 20 -3 10 0 11 15 3 15 -9 19 -7 20
8 1 10 -5 24 -13 31 -19 16 -18 43 2 35 9 -3 20 -6 25 -6 6 0 8 -4 5 -8 -3 -5
1 -9 9 -9 19 0 19 8 0 33 -17 23 -20 58 -4 48 7 -4 10 -1 7 7 -3 8 -23 23 -46
34 -23 11 -42 25 -42 32 0 6 -3 13 -7 15 -19 8 -76 78 -64 78 6 0 23 -12 36
-26 15 -16 29 -23 37 -18 7 4 10 4 6 -1 -10 -10 33 -44 49 -38 7 3 10 9 7 14
-3 5 2 9 10 9 22 0 20 16 -5 56 -11 19 -19 34 -17 34 2 0 21 -16 42 -35 42
-38 56 -43 56 -20 0 18 34 20 48 2 6 -7 23 -14 38 -15 15 -1 32 -6 38 -11 7
-6 17 -6 26 0 13 8 13 11 -2 20 -29 16 -21 31 12 24 31 -7 44 10 15 21 -8 4
-15 13 -15 20 0 12 -4 12 -20 4 -14 -7 -26 -8 -38 -1 -12 8 -13 10 -3 11 8 0
12 3 8 6 -3 3 -12 2 -19 -2 -17 -11 -40 -14 -51 -7 -5 3 -3 9 4 14 10 6 11 9
2 9 -7 0 -13 5 -13 10 0 7 7 7 21 0 27 -15 34 -7 19 20 -7 13 -17 19 -26 16
-9 -3 -29 1 -46 10 -23 12 -28 18 -17 24 10 7 7 11 -13 19 -14 5 -29 15 -34
22 -5 9 -2 10 10 6 14 -6 15 -3 6 13 -16 30 7 25 54 -10 22 -17 41 -28 43 -26
5 5 -19 49 -32 58 -5 4 7 6 26 5 26 -1 46 -12 70 -36 19 -18 29 -30 22 -27 -6
3 -15 1 -19 -5 -4 -7 -12 2 -22 22 -8 19 -16 28 -19 21 -6 -16 25 -65 36 -57
5 2 20 -5 35 -16 14 -11 26 -16 26 -10 0 6 5 11 10 11 6 0 10 -8 8 -17 -2 -10
3 -18 12 -18 8 0 15 -9 15 -20 0 -12 11 -25 28 -33 15 -7 25 -18 21 -23 -3 -6
-24 0 -50 15 -24 13 -44 21 -44 16 0 -5 6 -13 14 -17 22 -13 38 -51 23 -56 -6
-3 -2 -6 11 -6 12 -1 22 -7 22 -16 0 -10 10 -15 28 -15 15 0 37 -3 50 -6 16
-5 22 -2 22 10 0 20 55 23 63 3 3 -9 -10 -17 -39 -25 -24 -7 -44 -16 -44 -22
0 -13 2 -13 37 1 31 13 74 18 68 9 -2 -4 -22 -13 -45 -20 -49 -16 -66 -35 -24
-28 16 3 40 2 53 -1 l23 -6 -23 -12 c-13 -6 -43 -20 -66 -31 -23 -10 -39 -23
-35 -27 4 -4 -3 -6 -15 -3 -21 6 -41 -16 -25 -26 18 -10 91 -16 96 -8 3 5 -6
7 -19 4 -29 -5 -32 8 -7 31 24 22 101 23 98 2 -1 -8 -8 -21 -14 -27 -7 -7 -12
-18 -12 -25 0 -9 -8 -11 -25 -7 -15 4 -25 2 -25 -5 0 -6 11 -11 25 -11 14 0
25 -4 25 -10 0 -5 -10 -10 -22 -10 -18 0 -14 -5 17 -19 22 -10 46 -29 53 -41
13 -22 13 -22 -14 -16 -15 4 -33 15 -39 23 -7 9 -19 14 -28 10 -9 -3 -19 -2
-22 3 -4 6 -14 10 -23 10 -12 -1 -8 -6 11 -16 30 -16 36 -34 10 -28 -10 2 -35
5 -56 8 -36 4 -65 16 -39 16 7 0 12 5 12 10 0 6 -15 10 -32 10 -25 0 -29 -3
-18 -10 13 -9 13 -11 0 -20 -8 -5 -25 -7 -36 -4 -12 3 -25 1 -28 -5 -5 -7 3
-11 21 -11 15 0 35 -4 43 -10 26 -16 -18 -25 -57 -11 -19 7 -37 10 -40 7 -4
-3 0 -6 8 -6 10 0 11 -2 2 -8 -8 -5 -3 -11 13 -19 13 -6 24 -7 24 -2 0 12 27
-2 55 -28 11 -10 27 -18 35 -17 8 0 10 -1 3 -3 -18 -6 -16 -20 2 -27 33 -12
13 -25 -35 -21 -37 3 -50 0 -50 -10 0 -7 -10 -15 -21 -18 -15 -4 -20 -11 -16
-21 7 -19 3 -20 -24 -5 -28 15 -80 2 -77 -19 3 -18 17 -32 31 -32 5 0 5 4 2
10 -4 6 2 7 16 1 13 -4 25 -14 27 -20 3 -10 0 -10 -17 -2 -21 12 -29 3 -11
-15 5 -5 5 -15 1 -23 -7 -10 -13 -10 -29 -2 -26 14 -52 14 -52 1 0 -5 9 -10
20 -10 11 0 20 -4 20 -10 0 -14 -24 -12 -38 2 -10 10 -15 10 -22 -2 -5 -8 -6
-18 -4 -22 3 -4 -2 -5 -10 -2 -9 3 -16 1 -16 -5 0 -6 9 -11 19 -11 11 0 23 -5
26 -11 5 -7 -8 -9 -41 -5 -27 3 -40 3 -29 0 11 -3 23 -9 27 -12 10 -10 -65 -8
-80 2 -17 10 -26 1 -16 -16 5 -7 7 -21 6 -30 -4 -20 14 -25 20 -7 5 14 48 2
48 -12 0 -6 -9 -7 -20 -4 -12 4 -26 0 -36 -9 -15 -15 -58 -16 -96 -1 -29 12
-20 -3 12 -20 25 -13 37 -14 70 -4 36 11 42 10 54 -7 18 -23 5 -30 -26 -13
-18 9 -15 3 12 -26 19 -21 29 -35 23 -31 -7 4 -19 4 -25 0 -7 -5 -32 -10 -55
-12 -33 -2 -43 0 -43 12 0 8 -5 18 -12 22 -7 5 -9 2 -5 -9 3 -9 0 -18 -9 -21
-8 -3 -14 -18 -13 -33 0 -15 3 -22 6 -15 6 14 33 16 33 2 0 -6 3 -9 8 -9 21 4
24 -3 7 -15 -15 -11 -25 -12 -40 -3 -16 8 -15 5 5 -16 31 -33 46 -34 54 -2 4
14 14 25 22 25 14 0 15 2 3 17 -12 14 -12 16 0 8 8 -4 25 -8 38 -9 12 -1 23
-5 22 -10 0 -5 5 -13 13 -18 9 -7 7 -8 -7 -3 -46 17 -58 18 -51 7 5 -8 1 -10
-11 -5 -11 4 -6 -4 12 -21 l30 -28 -38 7 c-25 5 -37 4 -37 -4 0 -6 7 -11 15
-11 8 0 15 -4 15 -10 0 -5 13 -7 28 -4 23 5 28 2 28 -15 0 -12 -4 -21 -8 -21
-4 0 -5 -8 -3 -19 3 -17 0 -18 -38 -9 -50 11 -79 34 -32 25 17 -3 39 -9 50
-12 19 -6 19 -6 3 8 -10 8 -14 17 -10 21 4 4 -5 5 -21 1 -19 -5 -27 -3 -27 6
0 10 -3 10 -12 1 -7 -7 -20 -12 -30 -12 -21 0 -21 1 -7 -39 10 -29 29 -43 29
-21 0 10 75 7 125 -5 31 -8 52 -17 122 -53 42 -22 74 -31 40 -11 -9 6 -15 15
-11 20 3 5 2 8 -3 7 -11 -3 -63 32 -63 43 0 5 8 6 18 3 10 -3 3 7 -16 25 -18
17 -29 31 -25 31 10 0 -19 20 -30 20 -5 0 -5 -5 -1 -11 4 -7 1 -10 -7 -7 -8 3
-14 10 -14 15 0 6 -3 15 -7 19 -5 4 -8 16 -8 27 0 19 1 19 18 4 10 -10 30 -17
44 -17 16 0 29 -9 38 -25 14 -27 26 -30 50 -15 12 8 12 10 -5 11 -12 0 -15 3
-7 6 15 6 -39 43 -62 43 -8 0 -24 9 -37 19 -23 19 -23 20 -3 15 12 -3 32 0 44
6 19 10 27 9 49 -9 14 -11 43 -30 65 -41 32 -16 40 -17 52 -6 7 8 19 16 25 18
18 6 -11 56 -40 67 -14 5 -20 10 -12 10 41 2 138 -86 117 -106 -3 -4 -6 1 -6
10 0 9 -9 21 -20 27 -17 9 -20 8 -20 -10 0 -12 7 -34 15 -50 9 -17 11 -30 5
-30 -22 0 -7 -26 24 -42 l34 -17 5 27 c3 15 0 30 -6 34 -6 4 0 9 15 13 21 5
28 14 30 38 3 34 28 51 28 19 0 -11 -6 -22 -12 -25 -9 -3 -6 -12 10 -29 12
-13 22 -27 22 -31 0 -9 -33 4 -43 17 -5 6 -7 -1 -4 -16 2 -15 -1 -29 -7 -31
-7 -2 -4 -10 7 -21 9 -10 14 -23 10 -29 -4 -7 -8 -6 -11 3 -7 22 -25 31 -34
17 -4 -7 -5 -20 -2 -29 3 -10 1 -18 -4 -18 -9 0 -14 -18 -26 -88 -3 -13 -12
-29 -20 -35 -20 -15 -16 -74 8 -129 12 -28 13 -44 6 -63 -11 -29 -35 -29 -35
0 0 10 -6 20 -12 22 -7 3 -13 -1 -13 -8 0 -10 -3 -10 -12 -1 -17 17 -33 15
-18 -3 6 -8 10 -20 7 -27 -2 -7 0 -21 5 -30 6 -13 3 -22 -11 -34 -11 -9 -17
-22 -15 -29 3 -7 -4 -15 -15 -18 -12 -3 -21 -15 -23 -33 -3 -27 -6 -29 -43
-27 -31 2 -45 -3 -67 -24 -15 -15 -28 -33 -28 -41 0 -8 -6 -12 -15 -8 -10 3
-15 -1 -15 -13 0 -10 -7 -24 -15 -31 -8 -7 -15 -18 -15 -26 0 -7 -6 -17 -14
-21 -8 -4 -16 -15 -18 -23 -2 -8 -11 -21 -20 -28 -10 -7 -18 -23 -18 -35 0
-18 6 -22 30 -22 21 0 39 10 63 38 23 25 40 35 51 31 12 -5 15 -2 10 10 -7 19
16 22 34 4 18 -18 15 -43 -8 -63 -11 -10 -20 -28 -20 -40 0 -13 -6 -28 -14
-34 -31 -26 -46 -167 -23 -208 16 -29 91 -78 144 -93 46 -14 96 -2 107 26 3 8
19 14 36 14 60 0 140 48 140 84 0 36 12 46 54 46 46 0 115 -41 116 -70 0 -8 7
-24 15 -34 24 -32 19 -80 -10 -96 -25 -13 -33 -30 -15 -30 6 0 10 -11 10 -23
0 -25 -28 -57 -48 -57 -7 0 -12 -6 -13 -12 -2 -28 -7 -54 -14 -70 -7 -17 15
-18 371 -18 l379 0 -2 45 c-1 38 2 48 23 61 16 11 24 26 24 45 0 31 17 38 38
17 10 -10 11 -2 6 33 -5 40 -3 49 17 68 24 22 24 20 -8 109 -3 7 3 12 16 12
16 0 23 8 28 30 4 23 11 30 29 30 14 0 24 6 24 14 0 26 19 28 44 4 34 -31 54
-108 38 -143 -7 -14 -16 -24 -21 -21 -21 13 -43 -52 -43 -126 0 -28 -7 -44
-25 -60 -14 -13 -36 -33 -50 -46 -13 -12 -30 -22 -38 -22 -8 0 -17 -4 -20 -10
-3 -5 -15 -10 -26 -10 -12 0 -19 -5 -17 -12 6 -17 326 -24 342 -8 13 13 46 13
46 0 0 -6 32 -10 75 -10 l75 0 0 159 c0 158 0 159 -22 153 -18 -4 -20 -2 -16
16 4 15 2 22 -8 22 -8 0 -14 6 -14 14 0 7 -7 27 -15 42 -19 37 -19 54 0 54 8
0 15 7 15 15 0 18 31 20 48 3 9 -9 12 4 12 60 0 68 -1 72 -23 72 -23 0 -47 17
-47 32 0 4 16 8 35 8 l35 0 0 56 c0 36 -5 61 -15 70 -8 9 -15 26 -15 40 0 13
-5 24 -11 24 -19 0 -60 51 -57 69 4 17 25 19 71 6 25 -7 27 -5 27 25 0 31 -1
32 -31 26 -38 -7 -95 17 -102 45 -6 22 -37 26 -37 5 0 -8 -7 -21 -15 -30 -9
-9 -11 -17 -5 -21 16 -10 12 -131 -5 -145 -9 -7 -15 -29 -15 -55 0 -26 -6 -48
-15 -55 -11 -9 -15 -32 -15 -81 0 -55 -3 -69 -15 -69 -8 0 -15 -5 -15 -12 0
-6 -3 -8 -7 -5 -13 13 -20 102 -11 129 6 16 7 44 4 64 -6 28 -12 36 -37 41
-30 6 -33 11 -43 85 -5 37 -4 37 24 31 l29 -5 0 118 c0 66 3 128 6 139 16 46
36 84 48 89 8 3 7 8 -5 16 -25 16 -22 49 7 76 14 13 25 30 25 38 0 8 5 18 10
21 21 13 46 -7 69 -55 23 -49 24 -51 5 -65 -10 -8 -25 -15 -31 -15 -17 0 -16
-50 2 -93 11 -27 21 -36 45 -39 26 -4 29 -2 24 14 -8 27 23 49 59 42 26 -5 27
-4 27 35 0 23 -4 41 -10 41 -19 0 -10 32 10 37 14 4 20 14 20 34 0 21 -4 27
-15 23 -8 -4 -15 -1 -15 5 0 6 7 11 15 11 13 0 15 27 15 183 l0 184 -42 1
c-67 1 -80 4 -68 16 17 17 11 23 -22 19 -32 -3 -32 -3 -6 6 108 36 172 87 91
74 -36 -6 -36 -6 -30 25 l7 32 -66 0 c-58 0 -65 2 -54 15 7 8 30 20 51 25 22
6 39 14 39 18 -1 22 -22 35 -54 34 -46 -2 -112 32 -120 61 -10 37 -7 57 9 57
8 0 15 7 15 15 0 32 31 73 86 115 50 38 55 44 38 51 -34 13 -64 9 -81 -11 -26
-30 -46 -26 -40 7 3 15 -1 39 -8 53 -15 30 -19 150 -4 150 14 0 11 50 -3 50
-7 1 -1 8 15 16 15 8 27 20 27 26 0 7 12 25 27 40 21 22 24 31 15 40 -10 10
-17 10 -33 0 -24 -15 -41 -6 -19 9 13 9 13 11 1 16 -10 4 -3 11 20 22 34 16
34 17 33 80 -1 57 1 67 25 88 26 23 26 23 6 39 -14 11 -16 18 -7 21 16 6 15
23 -2 23 -10 0 -13 17 -13 68 0 37 3 72 7 77 17 24 18 46 3 60 -9 9 -17 26
-18 38 -1 12 -3 27 -4 34 0 6 -13 26 -28 43 -21 26 -26 40 -24 82 1 28 6 69
11 91 6 31 5 45 -6 61 -8 11 -14 39 -14 61 0 66 -12 116 -29 123 -27 11 -136
134 -166 187 -16 28 -56 79 -90 115 -33 36 -74 83 -90 105 -63 86 -235 282
-281 321 -136 113 -241 174 -375 217 -156 51 -307 69 -484 56z m-286 -386 l13
-28 14 28 c21 38 38 35 29 -5 -4 -18 -8 -43 -7 -55 0 -12 -9 -30 -19 -39 -17
-16 -19 -16 -19 -1 0 18 -9 21 -25 9 -5 -4 -11 -54 -13 -112 -3 -104 7 -170
23 -160 4 3 12 -6 17 -19 10 -29 -2 -40 -38 -33 -26 5 -30 12 -14 28 5 5 6 22
1 39 -7 28 -8 26 -15 -23 -4 -29 -4 -58 0 -65 4 -7 -8 4 -26 23 -25 25 -34 43
-34 67 0 18 -4 33 -8 33 -5 0 -5 8 0 18 6 11 4 26 -4 42 -8 14 -14 19 -14 11
0 -11 -4 -9 -15 5 -13 17 -14 15 -8 -28 3 -27 2 -48 -3 -48 -5 0 -19 -3 -31
-6 -17 -5 -23 0 -34 30 -7 20 -17 36 -21 36 -4 0 -8 12 -7 28 l1 27 14 -32 c8
-18 16 -33 18 -33 2 0 4 17 5 38 2 20 3 54 4 75 3 54 46 80 49 30 0 -18 3 -12
8 17 l6 45 16 -35 16 -34 7 59 c7 55 28 95 42 82 3 -4 6 -27 7 -52 0 -25 2
-45 3 -45 1 0 7 19 13 43 21 79 28 86 49 40z m-1189 -80 c0 -13 5 -34 11 -45
6 -11 7 -24 2 -29 -15 -15 -33 7 -46 57 -13 50 -13 50 10 46 17 -3 23 -11 23
-29z m1548 -40 c-15 -15 -30 -24 -34 -21 -8 8 32 48 48 48 7 0 0 -12 -14 -27z
m242 -25 c-26 -9 -54 -3 -46 10 3 5 20 7 38 4 31 -5 32 -5 8 -14z m-1841 -53
c25 -39 35 -85 19 -85 -4 0 -8 -24 -8 -52 0 -67 -19 -103 -21 -40 -1 23 -2 45
-3 50 -1 4 -6 27 -10 52 -5 25 -13 50 -18 57 -5 7 -7 16 -4 22 3 5 1 22 -4 37
-10 25 -9 26 6 13 9 -7 28 -32 43 -54z m1781 61 c0 -11 -19 -15 -25 -6 -3 5 1
10 9 10 9 0 16 -2 16 -4z m-1836 -68 c8 -35 -8 -44 -27 -14 -19 28 -12 76 8
54 7 -7 15 -25 19 -40z m1617 38 c11 7 7 -25 -6 -46 -6 -8 -21 -24 -34 -35
l-24 -20 10 20 c6 11 8 26 6 32 -3 7 2 16 11 19 9 3 16 16 17 28 0 11 3 15 6
8 2 -6 9 -10 14 -6z m359 4 c0 -5 -12 -10 -27 -9 l-28 1 25 8 c14 4 26 8 28 9
1 1 2 -3 2 -9z m-2068 -35 c8 -13 8 -20 1 -22 -14 -5 -4 -43 11 -43 6 0 24
-12 39 -25 36 -32 30 -65 -13 -65 -26 0 -31 5 -40 40 -6 22 -15 40 -20 40 -11
0 -29 32 -40 70 -7 26 -6 27 22 26 18 -1 34 -9 40 -21z m-182 -10 c0 -8 6 -18
13 -22 8 -4 22 -21 33 -37 l18 -29 -23 13 c-15 7 -21 8 -17 1 4 -6 2 -11 -3
-11 -6 0 -11 5 -11 11 0 6 -9 22 -19 35 -11 14 -17 33 -14 44 6 21 23 18 23
-5z m410 3 c0 -13 -23 -5 -28 10 -2 7 2 10 12 6 9 -3 16 -11 16 -16z m1880 12
c-20 -13 -43 -13 -35 0 3 6 16 10 28 10 18 0 19 -2 7 -10z m-2188 -47 c10 -9
18 -20 18 -25 0 -11 -49 24 -50 35 0 12 12 8 32 -10z m130 -15 c-7 -7 -12 -8
-12 -2 0 14 12 26 19 19 2 -3 -1 -11 -7 -17z m1457 15 c0 -5 -4 -17 -9 -28 -8
-18 -9 -17 -9 8 -1 15 4 27 9 27 6 0 10 -3 9 -7z m-1159 -82 c20 -56 12 -61
-14 -7 -15 32 -22 76 -11 64 3 -3 14 -29 25 -57z m1047 27 c-3 -7 -5 -2 -5 12
0 14 2 19 5 13 2 -7 2 -19 0 -25z m-1472 12 c3 -5 2 -10 -4 -10 -5 0 -13 5
-16 10 -3 6 -2 10 4 10 5 0 13 -4 16 -10z m1200 -24 c10 -22 12 -43 7 -57 -8
-20 -10 -17 -25 27 -14 44 -15 64 -1 64 3 0 11 -15 19 -34z m-32 -66 c7 -14
18 -31 25 -38 6 -7 12 -26 12 -42 0 -16 3 -35 6 -44 3 -9 2 -16 -2 -16 -9 0
-18 18 -45 85 -9 23 -13 26 -16 12 -3 -9 5 -38 17 -63 12 -24 20 -54 17 -64
-4 -14 0 -20 11 -20 15 0 15 -2 2 -10 -8 -5 -18 -10 -22 -10 -9 0 -29 62 -33
110 -5 45 -35 101 -35 65 0 -17 -2 -17 -10 -5 -13 20 -13 53 0 45 6 -3 10 4
10 17 0 17 3 19 9 9 5 -7 14 -10 21 -6 9 6 10 9 0 15 -8 5 -9 16 -4 31 7 23 8
22 16 -11 5 -19 14 -46 21 -60z m-1169 54 c3 -8 2 -14 -2 -14 -10 0 -32 22
-32 32 0 12 28 -2 34 -18z m1267 -13 c8 5 17 9 20 9 9 0 30 -51 24 -60 -3 -5
0 -12 6 -16 8 -4 9 -3 5 4 -4 7 -3 12 3 12 13 0 31 -33 31 -57 0 -15 -2 -16
-10 -3 -8 12 -10 12 -10 -5 -1 -15 -5 -12 -19 14 -10 19 -20 29 -23 21 -5 -16
-52 45 -62 80 -6 22 -6 23 7 8 9 -11 18 -14 28 -7z m-1197 -33 c20 -28 20 -47
1 -54 -21 -8 -54 34 -55 69 0 24 2 26 19 17 11 -5 27 -20 35 -32z m210 6 c3
-8 2 -12 -4 -9 -6 3 -10 10 -10 16 0 14 7 11 14 -7z m1016 -161 c0 -12 5 -25
10 -28 12 -7 13 -35 2 -35 -21 0 -82 75 -82 99 l1 26 24 -27 c45 -52 41 -25
-7 51 -15 25 -28 54 -28 65 1 27 79 -122 80 -151z m241 100 c-10 -17 -10 -17
-11 2 0 11 4 31 8 45 l7 25 3 -27 c2 -15 -1 -35 -7 -45z m-481 5 c0 -5 -4 -8
-10 -8 -5 0 -10 10 -10 23 0 18 2 19 10 7 5 -8 10 -18 10 -22z m-703 -20 c7
-27 8 -50 2 -66 -13 -33 -15 -28 -22 46 -6 71 4 81 20 20z m-389 -14 c-4 -3
-12 5 -18 18 -12 22 -12 22 6 6 10 -10 15 -20 12 -24z m40 -30 c-4 -3 -12 5
-18 18 -12 22 -12 22 6 6 10 -10 15 -20 12 -24z m102 10 c0 -21 -17 -17 -23 5
-3 14 -1 18 9 14 8 -3 14 -11 14 -19z m1225 -8 c18 -17 22 -26 14 -32 -8 -4
-9 -3 -5 4 4 7 4 12 -1 12 -13 1 -59 40 -46 40 7 0 24 -11 38 -24z m86 -8 c10
-21 13 -45 8 -68 -3 -19 -7 -30 -8 -25 -1 6 -5 4 -9 -3 -6 -9 -12 -5 -21 14
-11 24 -10 26 3 15 14 -11 15 -8 12 25 -3 22 -8 47 -11 57 -13 31 11 18 26
-15z m-293 -21 c6 -5 12 -20 11 -35 l0 -27 -11 25 c-8 18 -12 21 -15 9 -2 -8
3 -31 11 -50 13 -29 15 -31 16 -10 0 20 2 21 15 11 17 -14 21 -35 5 -25 -5 3
-10 2 -10 -4 0 -5 5 -13 10 -16 17 -10 11 -25 -9 -25 -12 0 -20 -9 -23 -25 -3
-14 -1 -23 6 -22 5 1 10 -7 11 -17 0 -11 6 -21 14 -24 10 -3 12 5 9 37 -2 22
-1 41 2 41 14 -1 41 -54 46 -87 2 -21 9 -42 14 -47 16 -16 11 -30 -5 -16 -13
11 -14 10 -8 -6 9 -24 23 -34 51 -34 19 0 21 3 12 19 -8 16 -6 21 11 26 11 4
22 5 23 3 12 -18 29 -66 27 -75 -1 -7 3 -13 9 -13 25 0 7 -16 -22 -18 -21 -2
-37 4 -51 18 -10 12 -22 19 -25 16 -3 -4 3 -13 14 -20 10 -8 16 -18 12 -22 -4
-4 -14 -1 -23 6 -10 8 -15 9 -15 1 0 -6 9 -16 20 -23 23 -15 27 -40 5 -32 -8
4 -15 2 -15 -4 0 -5 7 -15 15 -22 10 -8 15 -9 15 -2 0 6 6 9 13 6 7 -2 21 2
31 9 16 12 16 14 2 26 -11 9 -16 10 -16 2 0 -6 -4 -11 -10 -11 -17 0 -11 14
11 28 22 14 83 7 74 -8 -3 -5 -17 -5 -32 1 -14 5 -28 7 -31 4 -3 -3 -1 -5 4
-5 5 0 18 -7 28 -15 19 -14 18 -16 -11 -44 -20 -19 -28 -33 -22 -42 10 -16 2
-29 -18 -29 -9 0 -13 6 -9 15 3 8 1 15 -5 15 -6 0 -9 7 -5 15 6 16 -19 22 -28
7 -3 -5 -26 -8 -52 -8 -45 1 -47 0 -67 -41 -12 -24 -25 -43 -29 -43 -4 0 -8
-5 -8 -11 0 -5 5 -7 10 -4 6 3 10 4 10 0 0 -3 -10 -10 -22 -15 -13 -5 -33 -17
-45 -26 -16 -11 -23 -13 -23 -4 0 6 8 14 18 16 9 3 25 19 35 36 17 29 17 30 0
24 -12 -4 -9 1 7 15 26 22 36 59 16 59 -8 0 -10 13 -8 36 3 26 1 35 -7 30 -6
-4 -11 -15 -11 -25 0 -9 -6 -25 -13 -35 -13 -18 -14 -18 -21 -1 -3 10 -3 27 0
39 6 18 5 19 -10 7 -14 -12 -16 -11 -16 3 0 10 -4 15 -9 12 -15 -9 -21 49 -9
90 6 22 8 65 5 98 -6 63 1 126 13 126 4 0 5 -20 2 -45 -5 -53 3 -59 17 -12 9
30 10 30 16 10 4 -13 11 -23 15 -23 13 0 20 28 8 32 -6 2 -12 22 -15 43 -4 36
-3 38 10 21 10 -14 16 -16 22 -7 7 12 -1 88 -12 117 -6 15 21 15 45 1z m335
-10 c3 -8 1 -20 -4 -28 -6 -10 -9 -7 -9 14 0 29 5 35 13 14z m-1239 -13 c3 -8
2 -12 -4 -9 -6 3 -10 10 -10 16 0 14 7 11 14 -7z m792 -39 c16 -47 17 -55 5
-55 -5 0 -12 12 -16 28 l-8 27 -13 -30 c-11 -25 -13 -26 -14 -9 0 38 12 85 22
82 6 -2 16 -22 24 -43z m-666 -50 c0 -63 -2 -73 -16 -68 -12 4 -14 0 -8 -22 6
-25 5 -28 -15 -22 -18 4 -21 1 -22 -31 -1 -21 -3 -29 -6 -19 -2 9 -10 17 -17
17 -16 0 -19 52 -6 102 14 49 25 42 22 -15 -2 -31 0 -38 8 -27 5 8 10 32 10
53 0 20 4 45 9 55 5 9 12 25 15 35 3 9 10 17 16 17 6 0 10 -30 10 -75z m897
22 c-6 -19 -22 -6 -25 20 -2 27 -2 27 13 8 8 -10 14 -23 12 -28z m979 29 c8
-8 14 -22 14 -31 0 -8 7 -26 15 -39 10 -15 13 -34 9 -49 -6 -26 -6 -26 -27 -6
-11 10 -27 19 -34 19 -7 0 -13 9 -13 21 0 11 -4 28 -9 37 -10 20 3 62 19 62 6
0 18 -6 26 -14z m-266 -7 c0 -16 -23 -59 -32 -59 -9 0 -11 53 -3 62 8 8 35 5
35 -3z m-1720 -14 c0 -8 -4 -15 -10 -15 -5 0 -7 7 -4 15 4 8 8 15 10 15 2 0 4
-7 4 -15z m965 -4 c-9 -16 25 -43 40 -31 9 8 14 6 18 -4 4 -9 -2 -17 -14 -21
-27 -9 -24 -28 13 -60 28 -26 31 -26 25 -6 -3 11 -1 21 4 21 4 0 6 7 3 15 -4
8 -10 12 -15 9 -5 -3 -9 -1 -9 5 0 18 16 20 38 5 12 -8 22 -26 22 -39 0 -13 5
-27 10 -30 19 -11 10 -23 -12 -17 -21 5 -22 4 -9 -11 18 -23 -2 -22 -36 1 -15
9 -24 11 -20 5 5 -7 5 -13 0 -13 -21 1 -33 20 -39 66 -4 27 -13 59 -20 71 -17
27 -18 43 -3 43 5 0 8 -4 4 -9z m178 -97 c-5 -13 -3 -15 7 -9 9 6 11 4 5 -5
-4 -7 -2 -16 6 -21 7 -4 10 -11 7 -15 -4 -3 -18 5 -31 20 -13 14 -27 23 -30
19 -4 -3 -7 1 -7 9 0 8 -11 31 -24 51 -34 50 -11 54 36 6 26 -26 35 -44 31
-55z m707 70 c0 -8 -4 -14 -10 -14 -5 0 -10 9 -10 21 0 11 5 17 10 14 6 -3 10
-13 10 -21z m-2250 -35 c0 -35 -19 -48 -37 -24 -16 24 -17 62 0 68 20 7 37
-13 37 -44z m1074 -2 c-3 -15 -10 -24 -15 -21 -11 6 -12 48 -2 58 13 12 24
-11 17 -37z m1444 -2 c5 -5 5 -17 1 -25 -4 -8 -11 -32 -14 -52 -3 -20 -15 -47
-26 -60 l-21 -23 7 25 c4 14 10 61 12 105 5 70 7 77 19 60 7 -11 17 -24 22
-30z m-1914 -58 c-10 -26 -22 -20 -16 9 3 15 8 22 14 16 5 -5 6 -16 2 -25z
m2136 10 c0 -7 -8 -13 -19 -13 -11 0 -17 5 -14 13 3 7 11 13 19 13 8 0 14 -6
14 -13z m-866 -33 c9 -22 -3 -32 -14 -14 -12 19 -12 30 -1 30 5 0 12 -7 15
-16z m-1714 -4 c0 -5 -5 -10 -11 -10 -5 0 -7 5 -4 10 3 6 8 10 11 10 2 0 4 -4
4 -10z m1690 -10 c0 -5 -2 -10 -4 -10 -3 0 -8 5 -11 10 -3 6 -1 10 4 10 6 0
11 -4 11 -10z m940 -5 c20 -24 6 -28 -15 -5 -10 11 -13 20 -8 20 6 0 16 -7 23
-15z m-2410 -9 c0 -16 -18 -31 -27 -22 -8 8 5 36 17 36 5 0 10 -6 10 -14z m53
-45 c9 -20 17 -50 17 -65 0 -24 -3 -26 -22 -20 -13 4 -28 7 -35 7 -6 0 -14 9
-16 19 -3 10 -1 15 4 12 5 -3 8 -2 7 3 -4 14 13 83 20 83 4 0 15 -18 25 -39z
m87 14 c7 -9 8 -15 2 -15 -5 0 -12 7 -16 15 -3 8 -4 15 -2 15 2 0 9 -7 16 -15z
m618 -42 c8 -34 7 -43 -5 -47 -28 -11 -32 -6 -27 32 11 76 18 79 32 15z m1663
30 c8 -9 15 -26 16 -37 1 -12 4 -32 7 -46 2 -14 5 -28 5 -32 1 -4 15 -15 32
-23 44 -23 64 -47 64 -76 0 -22 -3 -25 -25 -21 -21 3 -18 -1 15 -22 34 -22 37
-25 17 -26 -12 0 -25 7 -28 15 -6 15 -55 21 -67 8 -12 -11 15 -33 40 -33 28 0
57 -25 48 -40 -3 -5 -28 -10 -56 -10 -28 0 -49 -5 -49 -11 0 -5 -4 -7 -10 -4
-14 9 -13 -8 2 -23 9 -9 6 -12 -15 -12 -26 0 -40 20 -14 20 6 0 4 5 -5 11 -10
5 -18 19 -18 29 0 21 -15 27 -25 10 -3 -5 0 -10 7 -10 7 0 5 -5 -6 -11 -10 -6
-35 -9 -56 -6 -22 3 -44 0 -51 -7 -10 -8 -10 -6 0 7 9 10 21 15 32 12 10 -4
26 2 36 12 10 10 29 23 43 30 23 11 22 12 -20 12 -26 1 -52 -5 -58 -11 -7 -7
-20 -13 -30 -13 -9 0 -16 -5 -15 -11 4 -21 -41 -33 -68 -18 -18 10 -20 13 -6
14 20 0 23 16 5 23 -7 3 11 8 41 12 l54 8 -31 29 -32 28 29 0 c17 0 33 5 36
10 3 6 -3 10 -14 10 -27 0 -36 35 -17 65 22 34 20 42 -11 53 l-28 9 35 21 c37
23 76 30 65 11 -5 -7 4 -9 25 -7 20 2 35 -2 37 -10 3 -8 -1 -10 -12 -6 -10 4
-21 1 -25 -7 -10 -15 37 -51 80 -63 23 -7 24 -6 7 8 -14 11 -16 19 -9 33 11
20 5 82 -10 101 -16 19 17 15 33 -5z m-2421 -15 c0 -7 -14 -14 -31 -15 -26 -2
-29 0 -19 12 15 18 50 20 50 3z m1160 -9 c0 -14 -27 -10 -33 5 -4 10 0 12 14
9 10 -3 19 -9 19 -14z m1107 15 c-3 -3 -12 -4 -19 -1 -8 3 -5 6 6 6 11 1 17
-2 13 -5z m-1897 -129 c0 -8 -2 -15 -4 -15 -2 0 -6 7 -10 15 -3 8 -1 15 4 15
6 0 10 -7 10 -15z m340 8 c-1 -5 -7 -19 -15 -33 -10 -18 -14 -20 -15 -8 0 23
11 48 21 48 5 0 9 -3 9 -7z m53 -15 c-4 -13 -12 -32 -20 -43 -7 -11 -13 -29
-13 -42 0 -12 -5 -25 -12 -29 -8 -5 -9 -2 -5 9 8 22 -11 22 -35 0 -17 -15 -18
-15 -18 3 0 28 13 43 34 41 11 -1 25 10 35 28 34 61 43 70 34 33z m-183 3 c0
-6 -4 -13 -10 -16 -5 -3 -10 1 -10 9 0 9 5 16 10 16 6 0 10 -4 10 -9z m650
-23 c0 -6 -7 -5 -15 2 -8 7 -15 17 -15 22 0 6 7 5 15 -2 8 -7 15 -17 15 -22z
m-1190 12 c0 -5 -2 -10 -4 -10 -3 0 -8 5 -11 10 -3 6 -1 10 4 10 6 0 11 -4 11
-10z m1170 -15 c0 -3 -7 -17 -16 -30 l-16 -24 29 14 c55 27 73 24 87 -17 10
-27 10 -38 2 -41 -8 -3 -7 -9 3 -20 22 -27 38 -20 37 15 -1 43 28 51 46 13 6
-14 22 -28 36 -32 16 -4 30 -20 42 -49 10 -23 28 -48 39 -54 12 -6 21 -19 21
-28 0 -19 27 -62 39 -62 15 0 8 35 -10 55 -18 20 -18 21 1 22 19 2 70 -52 70
-74 0 -6 7 -16 15 -23 23 -19 18 -32 -7 -20 -16 8 -12 2 10 -17 30 -26 45 -52
21 -37 -7 4 -7 -1 1 -16 10 -19 9 -21 -7 -18 -10 2 -23 15 -30 29 -14 29 -87
99 -103 99 -6 0 -8 -11 -4 -27 l7 -28 -27 24 c-14 14 -26 30 -26 36 0 7 -9 20
-20 30 -20 18 -20 18 -14 -16 6 -32 6 -33 -9 -14 -8 11 -23 20 -33 20 -9 0
-19 6 -22 14 -3 9 0 11 8 6 9 -5 11 -4 6 3 -4 7 -15 12 -25 12 -9 0 -26 7 -37
15 -19 15 -19 16 1 13 32 -4 48 10 31 28 -8 8 -18 14 -22 14 -5 0 -3 -5 4 -12
20 -20 14 -30 -10 -17 -13 7 -25 15 -28 20 -3 4 -21 11 -40 16 -19 5 -33 12
-30 15 3 3 -1 12 -8 21 -14 16 -5 42 26 75 14 15 16 32 4 32 -17 0 -51 -41
-46 -55 7 -18 -12 -20 -22 -3 -14 23 -15 81 -2 89 15 10 28 11 28 4z m-1340
-20 c0 -8 -32 -35 -41 -35 -14 0 -11 38 4 43 11 4 37 -2 37 -8z m541 -45 c-4
-35 -11 -54 -19 -52 -7 1 -12 -2 -12 -8 0 -5 -7 -10 -15 -10 -20 0 -18 18 6
55 10 17 23 41 29 54 16 35 19 23 11 -39z m52 0 c3 -11 1 -18 -4 -14 -5 3 -9
12 -9 20 0 20 7 17 13 -6z m347 5 c-6 -8 -9 -19 -5 -25 3 -5 2 -10 -4 -10 -12
0 -20 21 -13 38 2 6 11 12 19 12 12 0 13 -3 3 -15z m-260 -33 c0 -10 -6 -27
-14 -38 -14 -18 -15 -18 -14 6 2 38 28 68 28 32z m431 1 c-5 -10 -10 -22 -10
-28 -1 -10 -51 -28 -51 -19 0 5 62 64 68 64 1 0 -2 -8 -7 -17z m62 -9 c-4 -10
3 -14 20 -14 40 0 42 -18 3 -26 -20 -3 -40 -12 -47 -20 -10 -12 -4 -13 37 -8
33 3 44 2 34 -4 -21 -14 -190 -26 -190 -14 0 11 61 42 82 42 8 0 23 9 33 20
16 18 16 20 2 20 -10 0 -14 6 -11 14 3 8 13 12 24 9 11 -3 16 -11 13 -19z
m-604 -25 c-5 -22 -7 -71 -4 -108 3 -52 1 -72 -11 -87 -14 -18 -15 -17 -10 16
3 19 8 45 12 58 4 13 3 22 -2 21 -21 -4 -26 2 -14 16 7 8 9 22 6 31 -7 19 11
94 23 94 5 0 5 -18 0 -41z m35 6 c-4 -8 -8 -15 -10 -15 -2 0 -4 7 -4 15 0 8 4
15 10 15 5 0 7 -7 4 -15z m236 -10 c-7 -8 -17 -15 -23 -15 -6 0 -2 7 9 15 25
19 30 19 14 0z m-595 -15 c3 -6 -1 -7 -9 -4 -18 7 -21 14 -7 14 6 0 13 -4 16
-10z m69 -6 c11 -28 6 -39 -9 -20 -8 11 -15 23 -15 28 0 14 18 9 24 -8z m1356
6 c0 -5 -4 -10 -10 -10 -5 0 -10 5 -10 10 0 6 5 10 10 10 6 0 10 -4 10 -10z
m-1071 -22 c-1 -13 -4 -34 -8 -48 -7 -24 -7 -24 -13 -3 -7 26 1 73 13 73 5 0
9 -10 8 -22z m31 13 c0 -6 -4 -13 -10 -16 -5 -3 -10 1 -10 9 0 9 5 16 10 16 6
0 10 -4 10 -9z m667 3 c-3 -3 -12 -4 -19 -1 -8 3 -5 6 6 6 11 1 17 -2 13 -5z
m28 -3 c3 -5 1 -12 -5 -16 -5 -3 -10 1 -10 9 0 18 6 21 15 7z m318 -29 c4 10
7 10 18 1 19 -18 19 -41 1 -39 -19 1 -52 26 -52 39 0 5 6 4 14 -2 11 -9 15 -9
19 1z m67 -12 c0 -5 -2 -10 -4 -10 -3 0 -8 5 -11 10 -3 6 -1 10 4 10 6 0 11
-4 11 -10z m-676 -22 c5 -10 7 -10 12 0 8 17 35 15 28 -3 -3 -8 -20 -19 -37
-24 -18 -5 -40 -12 -49 -16 -28 -11 -21 11 8 23 14 7 22 17 19 22 -3 6 -2 10
4 10 5 0 12 -6 15 -12z m1616 8 c0 -11 -19 -15 -25 -6 -3 5 1 10 9 10 9 0 16
-2 16 -4z m60 -6 c13 -9 13 -11 0 -20 -8 -5 -23 -10 -32 -10 -10 0 -17 -5 -15
-11 1 -6 -3 -13 -10 -16 -7 -3 -11 4 -10 18 1 12 9 24 19 27 10 2 18 8 18 13
0 12 11 11 30 -1z m-1513 -19 c-4 -17 1 -18 51 -15 31 2 60 8 66 14 13 13 39
13 31 0 -3 -5 0 -10 7 -10 7 -1 -2 -7 -20 -15 -25 -11 -52 -13 -112 -7 -53 5
-81 4 -84 -3 -2 -5 -5 -2 -5 7 -1 9 11 23 27 31 38 20 45 20 39 -2z m608 -9
c-3 -3 -11 0 -18 7 -9 10 -8 11 6 5 10 -3 15 -9 12 -12z m-1317 -32 c-2 -22 0
-40 4 -40 11 0 -14 -64 -28 -73 -16 -9 -74 -94 -74 -108 0 -6 -5 -9 -11 -7
-17 6 -19 97 -2 132 11 25 13 26 8 6 -12 -54 -15 -74 -9 -62 8 17 27 15 20 -3
-3 -8 -1 -15 4 -15 6 0 11 8 11 18 2 23 2 24 -7 45 -5 15 -3 17 18 12 33 -8
52 15 45 57 -4 32 6 78 19 78 3 0 4 -18 2 -40z m2035 33 c-7 -2 -21 -2 -30 0
-10 3 -4 5 12 5 17 0 24 -2 18 -5z m-2141 -28 c-2 -14 -6 -25 -8 -25 -2 0 -4
11 -4 25 0 14 4 25 9 25 4 0 6 -11 3 -25z m2128 4 c3 -4 31 -9 63 -11 38 -2
57 -7 57 -16 0 -8 -8 -10 -25 -6 -15 4 -25 2 -25 -5 0 -6 -12 -11 -27 -12 -16
0 -22 -3 -15 -6 6 -2 9 -10 6 -15 -4 -6 1 -17 11 -25 18 -13 18 -13 -1 -13
-10 0 -30 -3 -44 -6 l-25 -6 23 20 c29 27 28 34 -5 30 -16 -2 -27 -8 -25 -15
2 -14 -44 -18 -72 -7 -25 10 -19 34 8 34 26 0 59 29 35 31 -8 1 -17 1 -20 1
-4 -1 -5 7 -2 18 3 11 9 17 14 14 5 -3 9 0 9 6 0 11 51 2 60 -11z m-470 1 c0
-5 -7 -7 -15 -4 -8 4 -15 8 -15 10 0 2 7 4 15 4 8 0 15 -4 15 -10z m-2013 -25
c-8 -16 -20 -25 -35 -25 -14 0 -27 -9 -34 -25 -6 -14 -15 -25 -20 -25 -5 0 -6
5 -3 10 3 6 2 10 -3 10 -5 0 -9 7 -9 15 0 8 6 15 12 15 7 0 25 11 41 25 16 14
36 25 46 25 14 0 14 -4 5 -25z m1400 19 c-3 -3 -12 -4 -19 -1 -8 3 -5 6 6 6
11 1 17 -2 13 -5z m-319 -17 c-7 -8 -20 -12 -30 -9 -25 6 -12 22 18 22 20 0
23 -2 12 -13z m1029 7 c-3 -3 -12 -4 -19 -1 -8 3 -5 6 6 6 11 1 17 -2 13 -5z
m-1511 -32 c-17 -16 -18 -16 -5 5 7 12 15 20 18 17 3 -2 -3 -12 -13 -22z m611
22 c-3 -3 -12 -4 -19 -1 -8 3 -5 6 6 6 11 1 17 -2 13 -5z m141 -1 c-16 -4 -24
-32 -19 -70 1 -7 -5 -13 -14 -13 -8 0 -15 -4 -15 -10 0 -14 59 -42 72 -34 7 4
8 3 4 -4 -5 -8 4 -12 27 -12 19 0 40 -7 47 -15 10 -12 10 -15 -4 -15 -9 0 -16
5 -16 10 0 6 -18 10 -40 10 -31 0 -38 -3 -34 -15 7 -17 31 -20 36 -4 2 7 10 4
18 -7 10 -12 11 -15 2 -10 -7 4 -19 3 -27 -4 -10 -9 -21 -8 -44 4 -16 9 -36
16 -44 16 -8 0 -36 12 -61 26 -26 15 -59 28 -74 29 -44 4 -82 17 -77 25 3 5
-1 11 -7 13 -7 3 -3 6 8 6 12 1 24 -6 28 -14 3 -9 18 -15 36 -15 20 0 30 5 30
15 0 8 6 15 14 15 7 0 19 7 26 15 8 9 8 15 2 15 -6 0 -12 -5 -14 -12 -3 -7 -7
-5 -11 6 -6 16 -3 18 27 12 26 -5 35 -3 40 9 4 13 1 15 -14 10 -11 -4 -20 -2
-20 4 0 5 19 12 43 14 62 5 95 5 75 0z m1382 3 c0 -16 -14 -36 -26 -36 -8 0
-14 -7 -14 -15 0 -9 9 -15 24 -15 14 0 28 -4 31 -10 3 -5 2 -10 -3 -10 -12 0
-72 21 -72 25 0 15 15 35 26 35 8 0 11 6 8 15 -4 9 0 15 10 15 9 0 16 -2 16
-4z m-1632 -41 c-9 -20 -38 -36 -38 -21 0 15 14 35 21 30 5 -3 9 0 9 5 0 6 4
11 10 11 6 0 5 -10 -2 -25z m417 7 c-2 -3 0 -11 6 -18 19 -23 -6 -22 -33 1
-17 15 -23 25 -15 28 15 5 50 -4 42 -11z m482 -7 c9 -20 8 -25 -3 -25 -8 0
-14 4 -14 8 0 5 -12 13 -27 20 -19 8 -21 10 -5 6 12 -3 22 -1 22 5 0 19 15 11
27 -14z m-1292 5 c-3 -5 -13 -10 -21 -10 -8 0 -12 5 -9 10 3 6 13 10 21 10 8
0 12 -4 9 -10z m256 -14 c-6 -7 -8 -16 -4 -19 3 -4 -6 -7 -21 -7 l-27 0 23 24
c23 23 48 25 29 2z m426 8 c-3 -3 -12 -4 -19 -1 -8 3 -5 6 6 6 11 1 17 -2 13
-5z m-1109 -46 c6 -21 7 -38 4 -38 -9 0 -30 68 -24 75 7 7 9 5 20 -37z m-443
22 c-3 -5 -11 -10 -16 -10 -6 0 -7 5 -4 10 3 6 11 10 16 10 6 0 7 -4 4 -10z
m1162 4 c-3 -3 -12 -4 -19 -1 -8 3 -5 6 6 6 11 1 17 -2 13 -5z m389 -9 c25
-13 26 -15 8 -15 -12 0 -27 7 -34 15 -16 19 -10 19 26 0z m192 -18 c13 5 52
-32 52 -49 0 -5 -10 -3 -22 3 -13 7 -24 11 -26 10 -1 -1 -15 7 -30 18 -15 11
-22 21 -15 21 7 0 10 8 7 18 -4 12 -1 10 8 -4 7 -12 19 -19 26 -17z m-1368 -8
c0 -6 -4 -7 -10 -4 -5 3 -10 11 -10 16 0 6 5 7 10 4 6 -3 10 -11 10 -16z
m1225 11 c3 -5 1 -10 -4 -10 -6 0 -11 5 -11 10 0 6 2 10 4 10 3 0 8 -4 11 -10z
m-1525 -15 c-7 -9 -15 -13 -17 -11 -7 7 7 26 19 26 6 0 6 -6 -2 -15z m1788
-24 c44 -34 98 -114 88 -129 -3 -5 15 -22 39 -38 25 -15 43 -30 40 -32 -2 -3
-12 1 -21 8 -13 12 -17 11 -25 -1 -8 -11 -9 -10 -7 6 2 14 -2 19 -13 17 -18
-3 -41 21 -46 47 -6 29 -9 36 -21 59 -7 12 -18 22 -26 22 -16 0 -76 53 -76 68
0 17 25 8 68 -27z m-1208 26 c0 -2 -10 -12 -22 -23 l-23 -19 19 23 c18 21 26
27 26 19z m-640 -18 c0 -6 7 -9 15 -6 19 8 31 -11 16 -26 -8 -8 -11 -8 -11 1
0 7 -7 12 -15 12 -8 0 -15 -5 -15 -11 0 -5 -4 -8 -9 -4 -6 3 -18 -3 -28 -13
-20 -21 -53 -36 -53 -24 0 9 82 81 93 82 4 0 7 -5 7 -11z m2702 -6 c26 -24 22
-30 -17 -28 -41 3 -60 15 -24 16 13 0 18 3 12 6 -7 2 -13 9 -13 14 0 14 22 11
42 -8z m132 2 c3 -8 12 -12 21 -9 18 7 45 -12 45 -33 0 -10 -6 -13 -16 -9 -12
4 -14 1 -9 -13 6 -19 5 -19 -32 0 -20 10 -43 19 -50 19 -7 0 -13 7 -13 15 0
13 4 14 20 5 11 -6 20 -7 20 -1 0 5 -17 16 -37 24 l-38 16 41 0 c28 1 44 -4
48 -14z m-1204 -5 c0 -5 -2 -10 -4 -10 -3 0 -8 5 -11 10 -3 6 -1 10 4 10 6 0
11 -4 11 -10z m-945 -10 c-3 -5 -12 -10 -18 -10 -7 0 -6 4 3 10 19 12 23 12
15 0z m570 -10 c-28 -12 -47 -12 -40 0 3 6 18 10 33 9 24 0 25 -1 7 -9z m-50
-20 c3 -5 -1 -10 -9 -10 -8 0 -18 5 -21 10 -3 6 1 10 9 10 8 0 18 -4 21 -10z
m175 -19 c13 -13 13 -14 -3 -8 -24 9 -44 -2 -26 -14 22 -13 2 -22 -21 -9 -17
9 -20 14 -9 20 10 7 10 11 -1 25 -12 15 -11 16 16 9 16 -4 36 -14 44 -23z
m465 -17 c24 -37 30 -75 10 -68 -9 4 -13 13 -10 24 3 9 -1 23 -10 30 -13 11
-21 40 -11 40 2 0 11 -12 21 -26z m735 16 c11 -7 4 -10 -27 -10 -24 0 -43 5
-43 10 0 13 50 13 70 0z m-1147 -17 c-7 -2 -19 -2 -25 0 -7 3 -2 5 12 5 14 0
19 -2 13 -5z m177 -14 c0 -6 -9 -8 -22 -3 -20 6 -21 5 -9 -10 17 -20 5 -21
-15 -2 -11 11 -11 16 -1 19 22 9 47 7 47 -4z m-1624 -28 c0 -11 -5 -17 -13
-14 -17 6 -17 20 0 26 6 3 12 6 12 6 1 1 1 -7 1 -18z m408 10 c3 -5 -1 -11 -9
-14 -9 -4 -12 -1 -8 9 6 16 10 17 17 5z m2246 -11 c0 -5 -6 -10 -14 -10 -8 0
-18 5 -21 10 -3 6 3 10 14 10 12 0 21 -4 21 -10z m-2353 -42 c-3 -8 -6 -5 -6
6 -1 11 2 17 5 13 3 -3 4 -12 1 -19z m1240 -5 c28 -10 40 -19 37 -28 -4 -11
-16 -8 -52 11 -52 27 -81 52 -47 39 11 -4 39 -14 62 -22z m99 15 c-10 -6 -22
-6 -26 -2 -5 5 3 10 18 11 22 1 24 0 8 -9z m-210 -15 c9 -10 27 -18 39 -18 26
-2 45 -13 45 -26 0 -6 -4 -7 -10 -4 -5 3 -10 1 -10 -4 0 -6 7 -11 15 -11 8 0
15 -7 15 -15 0 -16 -4 -18 -37 -9 -13 4 -20 11 -16 20 4 10 0 12 -13 7 -11 -4
-15 -3 -11 4 5 7 0 9 -11 6 -10 -2 -24 3 -31 11 -10 12 -10 16 -2 16 7 0 9 5
6 11 -5 7 -13 4 -25 -8 -15 -16 -15 -19 -1 -25 13 -6 12 -7 -3 -5 -19 2 -33
37 -15 37 6 0 8 4 5 9 -6 9 9 19 31 20 6 1 19 -7 29 -16z m1464 2 c11 -13 10
-14 -4 -9 -9 3 -16 10 -16 15 0 13 6 11 20 -6z m-1555 -5 c3 -5 2 -10 -4 -10
-5 0 -13 5 -16 10 -3 6 -2 10 4 10 5 0 13 -4 16 -10z m-460 -30 c3 -6 -1 -7
-9 -4 -18 7 -21 14 -7 14 6 0 13 -4 16 -10z m460 -40 c3 -5 -1 -10 -10 -10 -9
0 -13 5 -10 10 3 6 8 10 10 10 2 0 7 -4 10 -10z m75 -4 c23 -9 29 -16 20 -21
-10 -6 -10 -10 2 -19 22 -16 41 -56 28 -56 -6 0 -8 -4 -5 -10 4 -6 -1 -7 -11
-3 -11 4 -13 8 -6 11 7 2 10 8 7 12 -3 5 -13 6 -22 3 -11 -4 -14 -3 -9 5 4 7
2 12 -3 12 -6 0 -10 3 -10 8 4 26 -4 42 -26 48 -26 7 -35 24 -11 24 7 0 28 -6
46 -14z m261 -33 c13 -16 12 -17 -3 -4 -17 13 -22 21 -14 21 2 0 10 -8 17 -17z
m309 -7 c0 -2 -9 -6 -20 -9 -11 -3 -20 -1 -20 4 0 5 9 9 20 9 11 0 20 -2 20
-4z m-820 -16 c8 -5 11 -10 5 -10 -5 0 -17 5 -25 10 -8 5 -10 10 -5 10 6 0 17
-5 25 -10z m140 -20 c21 -21 35 -27 25 -10 -3 6 2 10 12 10 15 0 16 2 3 10
-10 7 -11 10 -2 10 7 0 18 -11 24 -25 6 -14 18 -25 27 -25 11 0 12 -3 4 -8 -8
-5 -7 -13 5 -28 16 -20 82 -64 96 -64 15 0 4 19 -14 25 -13 4 -20 15 -20 32 0
15 3 23 8 19 4 -4 7 -11 7 -15 0 -4 24 -31 53 -60 29 -29 44 -50 34 -47 -12 4
-19 1 -19 -8 0 -9 4 -13 8 -11 11 8 31 -23 23 -36 -4 -7 -3 -9 2 -6 6 3 16 1
24 -5 12 -8 12 -9 -2 -4 -11 3 -18 0 -18 -7 -1 -7 -12 1 -25 18 -15 18 -23 39
-21 52 4 21 -19 52 -30 40 -4 -3 -1 -20 5 -38 14 -39 14 -49 1 -49 -5 0 -10 7
-10 15 0 9 -8 19 -17 22 -20 7 -48 42 -48 59 0 15 -25 44 -37 44 -6 0 -8 -7
-4 -15 4 -12 2 -13 -13 -6 -10 6 -24 18 -32 27 -13 16 -12 16 8 6 35 -19 38
-14 8 14 -23 21 -25 28 -14 36 12 8 12 9 -1 5 -8 -2 -14 -11 -12 -18 3 -12
-29 10 -48 32 -3 3 -14 11 -25 17 -17 10 -18 11 -2 12 9 0 26 -9 37 -20z m100
-12 c0 -13 -23 -5 -28 10 -2 7 2 10 12 6 9 -3 16 -11 16 -16z m-75 -59 c11
-17 2 -18 -19 -3 -17 12 -17 14 -4 14 9 0 20 -5 23 -11z m-125 -19 c0 -5 -2
-10 -4 -10 -3 0 -8 5 -11 10 -3 6 -1 10 4 10 6 0 11 -4 11 -10z m0 -36 c0 -2
-9 0 -20 6 -11 6 -20 13 -20 16 0 2 9 0 20 -6 11 -6 20 -13 20 -16z m173 -12
c10 -9 25 -17 34 -18 32 -5 91 -84 63 -84 -5 0 -17 -3 -27 -6 -12 -4 -14 -3
-6 3 17 12 -12 55 -60 87 -31 21 -37 23 -37 9 0 -23 -19 -3 -25 25 -3 20 -2
21 18 11 12 -6 30 -19 40 -27z m211 13 c-4 -8 -10 -12 -15 -9 -14 8 -10 24 6
24 9 0 12 -6 9 -15z m571 -15 c-3 -5 -15 -10 -26 -10 -10 0 -19 5 -19 10 0 6
12 10 26 10 14 0 23 -4 19 -10z m-1814 -27 c-8 -15 -10 -15 -11 -2 0 17 10 32
18 25 2 -3 -1 -13 -7 -23z m719 -33 c13 -9 13 -10 0 -10 -8 0 -22 5 -30 10
-13 9 -13 10 0 10 8 0 22 -5 30 -10z m1150 -20 c0 -5 -4 -10 -9 -10 -6 0 -13
5 -16 10 -3 6 1 10 9 10 9 0 16 -4 16 -10z m-1395 -20 c3 -6 -1 -7 -9 -4 -18
7 -21 14 -7 14 6 0 13 -4 16 -10z m565 -40 c6 -11 8 -20 6 -20 -3 0 -10 9 -16
20 -6 11 -8 20 -6 20 3 0 10 -9 16 -20z m148 -5 l12 -26 -25 18 c-27 20 -32
33 -12 33 8 0 19 -11 25 -25z m50 -3 c2 -7 -3 -12 -12 -12 -9 0 -16 7 -16 16
0 17 22 14 28 -4z m-443 -23 c4 -6 17 -14 29 -19 15 -6 16 -9 5 -9 -9 -1 -27
8 -40 19 -13 10 -19 19 -12 20 6 0 15 -5 18 -11z m-205 -10 c0 -5 -4 -8 -9 -5
-5 4 -11 1 -13 -6 -3 -8 -7 -6 -11 5 -5 12 -1 17 13 17 11 0 20 -5 20 -11z
m45 -19 c4 -6 1 -9 -6 -8 -6 2 -14 -3 -16 -9 -3 -8 4 -13 16 -13 11 0 23 -4
26 -10 4 -6 -6 -7 -27 -3 -41 7 -38 5 -31 31 6 23 27 30 38 12z m1276 -26 l24
-26 -25 7 c-24 7 -40 22 -40 38 0 14 17 6 41 -19z m-252 -5 c-12 -7 -12 -9 0
-9 8 0 12 -2 10 -5 -7 -6 -49 6 -49 14 0 3 12 7 27 8 19 1 22 -1 12 -8z m151
1 c0 -5 -7 -10 -15 -10 -8 0 -15 5 -15 10 0 6 7 10 15 10 8 0 15 -4 15 -10z
m-1795 -30 c-3 -5 -16 -15 -28 -21 -22 -12 -22 -12 -3 10 19 21 43 30 31 11z
m939 1 c3 -5 0 -13 -7 -19 -10 -8 -13 -6 -13 9 0 20 11 25 20 10z m146 0 c0
-6 -4 -13 -10 -16 -5 -3 -10 1 -10 9 0 9 5 16 10 16 6 0 10 -4 10 -9z m-454
-11 c14 12 34 6 34 -11 0 -10 -30 -12 -54 -3 -9 3 -13 11 -9 17 5 8 8 7 11 -1
3 -10 7 -10 18 -2z m-821 -10 c-3 -5 3 -15 15 -22 20 -13 28 -30 11 -25 -4 1
-18 -9 -30 -23 l-23 -25 7 25 c4 14 8 36 10 50 4 31 4 30 11 30 3 0 2 -4 -1
-10z m115 -15 c-7 -8 -17 -15 -22 -15 -6 0 -5 7 2 15 7 8 17 15 22 15 6 0 5
-7 -2 -15z m610 5 c0 -5 -7 -10 -15 -10 -8 0 -15 5 -15 10 0 6 7 10 15 10 8 0
15 -4 15 -10z m1150 0 c0 -5 -5 -10 -11 -10 -5 0 -7 5 -4 10 3 6 8 10 11 10 2
0 4 -4 4 -10z m154 0 c-18 -16 -51 -20 -68 -7 -17 12 -14 14 29 15 26 0 43 -3
39 -8z m-1155 -24 c19 -23 -1 -25 -44 -5 l-40 18 36 1 c20 0 42 -6 48 -14z
m96 4 c3 -5 2 -10 -4 -10 -5 0 -13 5 -16 10 -3 6 -2 10 4 10 5 0 13 -4 16 -10z
m1002 -30 c-1 -23 -26 -35 -41 -20 -7 7 -4 15 10 25 10 8 14 15 7 15 -7 0 -13
5 -13 10 0 7 6 7 19 0 11 -5 19 -19 18 -30z m128 22 c-3 -3 -11 0 -18 7 -9 10
-8 11 6 5 10 -3 15 -9 12 -12z m-1259 -17 c18 -15 18 -15 -5 -13 -14 2 -26 9
-29 16 -5 17 10 15 34 -3z m89 5 c3 -6 -1 -7 -9 -4 -18 7 -21 14 -7 14 6 0 13
-4 16 -10z m-180 -10 c3 -5 -3 -10 -14 -10 -12 0 -21 5 -21 10 0 6 6 10 14 10
8 0 18 -4 21 -10z m-788 -26 c-9 -9 -28 6 -21 18 4 6 10 6 17 -1 6 -6 8 -13 4
-17z m1053 0 c0 -2 -9 0 -20 6 -11 6 -20 13 -20 16 0 2 9 0 20 -6 11 -6 20
-13 20 -16z m1020 16 c0 -5 -7 -7 -15 -4 -8 4 -15 8 -15 10 0 2 7 4 15 4 8 0
15 -4 15 -10z m15 -58 c3 -8 2 -18 -1 -21 -4 -3 -9 0 -11 7 -3 7 -16 25 -29
39 -13 14 -24 28 -24 30 0 9 60 -41 65 -55z m-1838 26 c-3 -8 -6 -5 -6 6 -1
11 2 17 5 13 3 -3 4 -12 1 -19z m-187 3 c0 -5 -7 -14 -15 -21 -11 -9 -15 -9
-15 -1 0 7 -4 9 -10 6 -5 -3 -10 -2 -10 4 0 10 16 19 38 20 6 1 12 -3 12 -8z
m120 -11 c25 -19 25 -20 3 -20 -12 0 -27 9 -33 20 -13 25 -2 25 30 0z m1834
12 c2 -4 -4 -8 -14 -8 -10 0 -16 4 -14 8 3 4 9 8 14 8 5 0 11 -4 14 -8z
m-1919 -22 c3 -5 2 -10 -4 -10 -5 0 -13 5 -16 10 -3 6 -2 10 4 10 5 0 13 -4
16 -10z m758 3 c-7 -2 -19 -2 -25 0 -7 3 -2 5 12 5 14 0 19 -2 13 -5z m921 -3
c17 -6 35 -6 52 0 17 7 31 7 42 0 12 -6 13 -9 3 -10 -8 0 -11 -6 -7 -16 5 -12
1 -14 -17 -9 -21 7 -21 6 -2 -7 11 -7 29 -18 40 -24 40 -22 24 -32 -19 -11
-25 12 -46 27 -46 33 0 8 -16 10 -46 6 -34 -4 -45 -2 -40 7 4 6 13 8 19 4 7
-3 3 3 -7 15 -21 24 -12 28 28 12z m-588 -27 c-8 -8 -36 5 -36 17 0 7 6 7 21
0 11 -7 18 -14 15 -17z m-1016 -3 c0 -5 -2 -10 -4 -10 -3 0 -8 5 -11 10 -3 6
-1 10 4 10 6 0 11 -4 11 -10z m796 -28 c17 -39 12 -51 -12 -34 -17 11 -24 61
-8 55 7 -2 16 -12 20 -21z m42 -7 c-3 -3 -9 2 -12 12 -6 14 -5 15 5 6 7 -7 10
-15 7 -18z m92 5 c6 -11 7 -20 3 -20 -5 0 -14 9 -21 20 -7 11 -8 20 -2 20 5 0
14 -9 20 -20z m734 -14 l38 -13 -27 -7 c-18 -5 -31 -3 -35 5 -6 8 -9 8 -12 -2
-3 -8 -8 -11 -12 -8 -5 5 2 39 8 39 0 0 18 -6 40 -14z m-754 -6 c0 -5 -4 -10
-9 -10 -6 0 -13 5 -16 10 -3 6 1 10 9 10 9 0 16 -4 16 -10z m-1660 -28 c-6 -2
-10 -9 -10 -15 0 -7 -11 -17 -25 -24 -34 -15 -44 3 -15 31 13 11 19 15 15 7
-5 -9 -3 -12 6 -9 8 3 15 10 15 16 3 25 5 27 14 12 6 -10 6 -16 0 -18z m1461
-1 c-11 -7 -11 -9 0 -13 8 -3 12 -8 8 -11 -8 -10 -62 8 -67 21 -2 7 2 10 12 6
8 -3 23 -1 33 4 21 12 34 5 14 -7z m1023 -17 c47 -26 53 -37 36 -64 -5 -9 -5
-19 2 -27 14 -17 -2 -16 -25 1 -18 14 -18 14 0 18 15 4 9 13 -31 51 -55 53
-50 59 18 21z m-2387 -66 c-3 -8 -6 -5 -6 6 -1 11 2 17 5 13 3 -3 4 -12 1 -19z
m-17 -20 c0 -19 -2 -20 -10 -8 -13 19 -13 30 0 30 6 0 10 -10 10 -22z m2160
12 c0 -13 -11 -13 -30 0 -12 8 -11 10 8 10 12 0 22 -4 22 -10z m370 -20 c0 -5
-7 -7 -15 -4 -8 4 -15 8 -15 10 0 2 7 4 15 4 8 0 15 -4 15 -10z m1300 0 c0
-12 -28 -25 -36 -17 -9 9 6 27 22 27 8 0 14 -5 14 -10z m-1755 -9 c3 -5 0 -13
-5 -16 -7 -5 -5 -12 7 -21 16 -12 14 -12 -15 -3 -22 8 -30 14 -22 19 9 6 7 11
-6 19 -17 9 -16 10 8 11 15 0 29 -4 33 -9z m314 -44 c12 -15 12 -17 -3 -11 -9
3 -16 13 -16 22 0 8 1 13 3 11 1 -2 9 -12 16 -22z m-329 -7 c13 -8 13 -10 -2
-10 -9 0 -20 5 -23 10 -8 13 5 13 25 0z m185 -10 c3 -6 -1 -7 -9 -4 -18 7 -21
14 -7 14 6 0 13 -4 16 -10z m265 0 c0 -5 -2 -10 -4 -10 -3 0 -8 5 -11 10 -3 6
-1 10 4 10 6 0 11 -4 11 -10z m-116 -26 c5 -12 2 -15 -10 -10 -8 3 -18 6 -20
6 -3 0 -2 5 1 10 9 15 22 12 29 -6z m-309 -7 c17 -13 17 -14 -4 -20 -11 -3
-19 -1 -15 4 3 5 -4 9 -15 9 -12 0 -21 5 -21 10 0 14 33 12 55 -3z m255 -14
c36 -34 29 -57 -14 -47 -50 10 -55 25 -7 18 31 -4 41 -3 37 5 -4 6 -15 11 -25
11 -10 0 -21 9 -24 20 -7 26 -1 25 33 -7z m241 1 c24 -25 24 -26 4 -40 -12 -9
-16 -18 -10 -22 6 -4 12 -18 14 -32 1 -14 30 -52 62 -85 32 -33 59 -69 59 -80
0 -11 7 -29 15 -39 8 -11 15 -27 15 -35 -1 -9 -13 6 -27 34 -58 111 -153 211
-153 160 0 -8 -4 -15 -9 -15 -5 0 -11 -9 -14 -20 -8 -32 -35 -23 -56 18 -18
35 -18 40 -4 67 28 53 33 64 33 78 0 16 20 37 35 37 6 0 22 -12 36 -26z
m-2304 -9 c6 -14 10 -25 8 -25 -2 0 -9 -2 -17 -5 -9 -4 -13 4 -14 25 -1 36 7
38 23 5z m-177 0 c7 -9 8 -15 2 -15 -5 0 -12 7 -16 15 -3 8 -4 15 -2 15 2 0 9
-7 16 -15z m360 8 c0 -5 -5 -15 -10 -23 -8 -12 -10 -11 -10 8 0 12 5 22 10 22
6 0 10 -3 10 -7z m370 -54 c-7 -11 -14 -18 -17 -15 -3 3 0 12 7 21 18 21 23
19 10 -6z m-420 -10 c0 -6 -4 -7 -10 -4 -5 3 -10 11 -10 16 0 6 5 7 10 4 6 -3
10 -11 10 -16z m1703 -3 c26 -20 7 -27 -37 -15 -47 13 -57 5 -19 -15 15 -8 24
-15 18 -16 -5 0 -23 9 -40 20 -16 11 -39 20 -50 21 -30 2 33 16 75 17 19 1 43
-5 53 -12z m37 3 c0 -5 14 -15 30 -20 33 -12 40 -29 12 -29 -18 0 -65 29 -48
30 5 0 3 7 -4 15 -9 10 -9 15 -1 15 6 0 11 -5 11 -11z m244 -4 c3 -8 1 -15 -4
-15 -6 0 -10 7 -10 15 0 8 2 15 4 15 2 0 6 -7 10 -15z m-189 -5 c3 -6 -1 -7
-9 -4 -18 7 -21 14 -7 14 6 0 13 -4 16 -10z m-1189 -29 c-3 -5 1 -11 9 -15 8
-3 15 -1 15 4 0 6 5 10 11 10 7 0 9 -9 6 -22 -4 -12 -1 -28 5 -35 18 -22 -7
-15 -27 7 -10 12 -25 18 -32 16 -7 -3 -13 -1 -13 3 0 18 12 41 22 41 5 0 7 -4
4 -9z m1387 -25 c6 -16 -2 -28 -14 -20 -12 7 -11 34 0 34 5 0 11 -6 14 -14z
m-323 -141 c0 -17 -40 -16 -58 2 -10 9 -9 14 5 22 21 11 53 -3 53 -24z m-835
-75 c3 -6 -1 -7 -9 -4 -18 7 -21 14 -7 14 6 0 13 -4 16 -10z m1302 -116 c-3
-3 -12 -4 -19 -1 -8 3 -5 6 6 6 11 1 17 -2 13 -5z m-2451 -87 c-8 -60 -15 -74
-27 -56 -7 11 -9 11 -9 -2 0 -16 -47 -55 -56 -46 -7 7 34 105 58 137 29 40 42
28 34 -33z m2382 56 c-10 -2 -26 -2 -35 0 -10 3 -2 5 17 5 19 0 27 -2 18 -5z
m-21 -28 c19 -8 47 -15 60 -15 15 0 23 -5 21 -12 -6 -17 -79 -17 -85 0 -3 6
-10 12 -15 12 -6 0 -6 -6 1 -14 9 -11 9 -15 -1 -19 -8 -3 -5 -6 6 -6 18 -1 17
-4 -9 -31 -29 -30 -65 -40 -65 -19 0 7 12 23 27 37 21 19 24 26 13 30 -45 12
-46 13 -21 33 28 23 23 23 68 4z m-2593 -49 c-7 -19 -34 -29 -34 -12 0 7 3 16
7 19 12 13 32 7 27 -7z m146 -16 c0 -5 -7 -10 -16 -10 -8 0 -12 5 -9 10 3 6
10 10 16 10 5 0 9 -4 9 -10z m613 -32 c4 -12 4 -24 2 -27 -3 -2 -5 1 -5 7 0 6
-7 9 -15 6 -17 -7 -18 -3 -9 20 9 23 21 20 27 -6z m222 3 c3 -5 1 -12 -5 -16
-5 -3 -10 1 -10 9 0 18 6 21 15 7z m1771 -37 c18 -15 18 -15 -11 -9 -28 6 -28
5 -11 -8 17 -12 17 -14 2 -20 -9 -4 -16 -13 -16 -22 0 -16 -43 -21 -74 -9 -25
10 -18 27 22 56 43 32 61 34 88 12z m-130 -95 c3 -6 1 -15 -6 -19 -9 -5 -9
-13 -2 -26 12 -22 -3 -58 -20 -48 -7 4 -8 3 -4 -4 9 -16 -29 -52 -62 -58 -15
-2 -45 2 -67 10 -38 14 -60 13 -40 -2 6 -4 18 -24 27 -44 16 -35 16 -38 -1
-59 -14 -17 -24 -20 -44 -15 -24 6 -27 11 -27 46 0 29 5 40 19 45 16 5 18 12
13 47 l-5 41 46 -6 c49 -7 61 5 35 31 -9 9 -8 12 5 12 10 0 24 8 33 19 9 10
24 16 34 14 10 -3 20 2 23 11 7 18 33 21 43 5z m1289 -18 c-3 -6 -11 -11 -17
-11 -6 0 -6 6 2 15 14 17 26 13 15 -4z m-2905 -162 c0 -7 -9 -9 -21 -6 -18 5
-20 2 -15 -16 5 -21 5 -21 -9 -3 -12 16 -12 22 -2 28 18 11 47 10 47 -3z
m1295 -40 c4 -11 4 -23 0 -27 -7 -7 -25 17 -25 36 0 20 18 14 25 -9z m1713 8
c8 -9 6 -16 -7 -24 -23 -14 -31 -8 -24 18 6 22 16 24 31 6z m-3449 -134 c29
-39 25 -52 -15 -41 -37 9 -58 47 -44 80 8 20 9 19 9 -13 1 -38 22 -66 41 -54
5 3 10 12 10 18 0 9 -3 8 -8 -1 -11 -16 -33 52 -31 94 1 23 3 21 8 -11 4 -22
17 -54 30 -72z m-223 26 l-26 -54 5 54 c3 48 15 84 15 50 1 -9 5 -7 12 6 23
40 18 -4 -6 -56z m134 45 c0 -8 5 -14 10 -14 6 0 10 -7 10 -16 0 -8 -4 -12
-10 -9 -5 3 -11 0 -11 -7 -1 -7 -5 1 -9 17 l-8 30 -1 -28 c0 -16 -5 -26 -11
-22 -11 7 -14 58 -4 68 10 9 34 -4 34 -19z m610 -23 c0 -9 3 -27 6 -41 l6 -25
-16 22 c-9 13 -18 39 -20 59 -2 32 -1 34 11 18 7 -10 13 -25 13 -33z m-670 27
c0 -4 -5 -8 -10 -8 -6 0 -16 -12 -22 -27 -11 -27 -12 -28 -16 -5 -2 13 1 29 7
36 12 14 41 17 41 4z m137 -20 c-3 -7 -5 -2 -5 12 0 14 2 19 5 13 2 -7 2 -19
0 -25z m268 10 c17 -8 36 -13 43 -11 8 3 12 -6 11 -29 -1 -23 -3 -26 -6 -10
-4 22 -23 31 -23 11 0 -8 -5 -8 -15 1 -12 10 -16 8 -24 -11 -7 -18 -10 -19
-10 -6 -1 9 -5 17 -10 17 -5 0 -7 9 -4 20 6 22 -12 28 -20 8 -3 -7 -6 -4 -6 8
-1 24 19 25 64 2z m-128 -20 c-3 -8 -6 -5 -6 6 -1 11 2 17 5 13 3 -3 4 -12 1
-19z m1711 13 c38 -2 24 -20 -15 -20 -21 0 -47 -2 -57 -3 -10 -2 -21 2 -23 9
-4 12 19 20 52 17 11 -1 30 -2 43 -3z m1590 -10 c3 -8 -1 -12 -9 -9 -7 2 -15
10 -17 17 -3 8 1 12 9 9 7 -2 15 -10 17 -17z m-3070 -12 c3 -12 2 -12 -6 0 -8
11 -10 11 -15 0 -4 -10 -6 -8 -6 4 -1 21 21 18 27 -4z m51 -24 c0 -5 -4 -3 -9
5 -5 8 -9 22 -9 30 0 16 17 -16 18 -35z m2750 36 c8 -5 15 -31 17 -59 4 -45 1
-53 -22 -71 -15 -11 -24 -27 -21 -34 4 -10 -2 -14 -16 -13 -22 1 -87 77 -87
102 0 8 7 17 15 20 8 4 15 14 15 23 0 29 69 51 99 32z m-2720 -14 c8 -10 7
-14 -2 -14 -8 0 -14 6 -14 14 0 7 1 13 2 13 2 0 8 -6 14 -13z m136 3 c3 -5 1
-10 -4 -10 -6 0 -11 5 -11 10 0 6 2 10 4 10 3 0 8 -4 11 -10z m485 -46 c0 -8
-4 -12 -10 -9 -5 3 -10 10 -10 16 0 5 5 9 10 9 6 0 10 -7 10 -16z m2341 -53
c-7 -13 -17 -17 -31 -14 -26 7 -21 24 11 40 27 14 35 4 20 -26z m-2451 9 c0
-5 -4 -10 -10 -10 -5 0 -10 5 -10 10 0 6 5 10 10 10 6 0 10 -4 10 -10z m-30
-46 c0 -19 -39 -18 -47 2 -3 9 0 20 8 24 15 10 39 -6 39 -26z m-60 -4 c0 -5
-4 -10 -10 -10 -5 0 -10 5 -10 10 0 6 5 10 10 10 6 0 10 -4 10 -10z m-613 -36
c-3 -3 -12 -4 -19 -1 -8 3 -5 6 6 6 11 1 17 -2 13 -5z m3103 -196 c0 -30 0
-31 -20 -13 -24 21 -26 40 -5 31 8 -3 15 -1 15 4 0 6 2 10 5 10 3 0 5 -14 5
-32z m-20 -82 c0 -8 -4 -17 -9 -20 -10 -7 -23 19 -14 28 11 11 23 6 23 -8z
m85 -68 c6 -31 4 -38 -9 -38 -12 0 -16 10 -16 47 0 54 15 48 25 -9z m-41 -33
c41 -37 52 -42 58 -23 6 18 40 0 36 -19 -2 -12 -13 -18 -31 -18 -26 -1 -41
-13 -50 -40 -2 -5 -11 -3 -21 5 -50 42 -56 51 -54 83 3 58 9 59 62 12z"/>
<path d="M2886 4192 c-3 -5 -9 -27 -15 -50 -8 -38 -7 -42 10 -42 14 0 19 7 19
28 0 15 3 37 6 50 6 21 -9 32 -20 14z"/>
<path d="M2832 4135 c0 -16 2 -22 5 -12 2 9 2 23 0 30 -3 6 -5 -1 -5 -18z"/>
<path d="M2750 4020 c0 -5 5 -10 11 -10 5 0 7 5 4 10 -3 6 -8 10 -11 10 -2 0
-4 -4 -4 -10z"/>
<path d="M3244 4104 c-18 -14 -18 -15 4 -4 12 6 22 13 22 15 0 8 -5 6 -26 -11z"/>
<path d="M2760 3965 c0 -5 5 -17 10 -25 5 -8 10 -10 10 -5 0 6 -5 17 -10 25
-5 8 -10 11 -10 5z"/>
<path d="M2570 3591 c0 -12 5 -21 10 -21 6 0 10 6 10 14 0 8 -4 18 -10 21 -5
3 -10 -3 -10 -14z"/>
<path d="M2647 3538 c-6 -17 21 -70 33 -63 10 6 4 30 -16 58 -9 14 -13 15 -17
5z"/>
<path d="M2546 3502 c-3 -20 -6 -46 -5 -57 l0 -20 9 20 c7 16 9 11 9 -22 1
-23 6 -45 13 -49 7 -5 9 -2 4 7 -4 8 0 5 9 -6 9 -11 22 -19 30 -17 9 2 12 -5
8 -20 -3 -18 -2 -20 5 -8 12 18 -5 120 -20 120 -5 0 -6 -9 -3 -20 11 -35 -2
-21 -24 25 -11 24 -18 51 -15 59 3 7 1 17 -4 20 -5 3 -12 -11 -16 -32z"/>
<path d="M2517 3524 c-4 -4 -7 -17 -7 -28 1 -19 1 -20 11 -3 11 19 8 43 -4 31z"/>
<path d="M2517 3423 c-4 -3 -7 -13 -7 -22 1 -13 3 -13 11 2 11 19 8 33 -4 20z"/>
<path d="M2690 3411 c0 -5 5 -13 10 -16 6 -3 10 -2 10 4 0 5 -4 13 -10 16 -5
3 -10 2 -10 -4z"/>
<path d="M3691 3667 c-8 -10 -7 -14 4 -14 8 0 15 6 15 14 0 7 -2 13 -4 13 -2
0 -9 -6 -15 -13z"/>
<path d="M4054 3325 c8 -8 19 -15 25 -15 17 0 13 17 -5 24 -27 10 -36 7 -20
-9z"/>
<path d="M4009 3282 c-14 -12 -18 -21 -11 -26 6 -3 23 5 39 19 21 18 24 24 12
25 -9 0 -27 -8 -40 -18z"/>
<path d="M4086 3275 c-3 -8 -2 -15 3 -15 5 0 14 7 21 15 10 12 10 15 -3 15 -8
0 -17 -7 -21 -15z"/>
<path d="M3072 3199 c2 -7 10 -15 17 -17 8 -3 12 1 9 9 -2 7 -10 15 -17 17 -8
3 -12 -1 -9 -9z"/>
<path d="M3040 3182 c0 -5 9 -12 21 -15 13 -3 19 -1 16 6 -5 15 -37 22 -37 9z"/>
<path d="M3120 3176 c0 -9 5 -16 10 -16 6 0 10 4 10 9 0 6 -4 13 -10 16 -5 3
-10 -1 -10 -9z"/>
<path d="M3100 3146 c0 -2 8 -10 18 -17 15 -13 16 -12 3 4 -13 16 -21 21 -21
13z"/>
<path d="M3095 3110 c3 -5 11 -10 16 -10 6 0 7 5 4 10 -3 6 -11 10 -16 10 -6
0 -7 -4 -4 -10z"/>
<path d="M3148 3099 c-2 -8 5 -28 17 -45 17 -25 23 -28 33 -18 10 11 8 16 -9
24 -11 6 -24 21 -28 32 -5 15 -9 17 -13 7z"/>
<path d="M4068 3033 c6 -2 18 -2 25 0 6 3 1 5 -13 5 -14 0 -19 -2 -12 -5z"/>
<path d="M3445 910 c-4 -6 5 -10 20 -10 15 0 24 4 20 10 -3 6 -12 10 -20 10
-8 0 -17 -4 -20 -10z"/>
<path d="M1606 3381 c-4 -7 -5 -15 -2 -18 9 -9 19 4 14 18 -4 11 -6 11 -12 0z"/>
<path d="M1610 3341 c0 -6 5 -13 10 -16 6 -3 10 1 10 9 0 9 -4 16 -10 16 -5 0
-10 -4 -10 -9z"/>
<path d="M4935 2980 c-3 -5 1 -10 9 -10 9 0 16 5 16 10 0 6 -4 10 -9 10 -6 0
-13 -4 -16 -10z"/>
<path d="M3154 2795 c6 -14 20 -28 31 -31 11 -3 34 -21 52 -40 49 -52 58 -41
16 21 -20 31 -41 54 -47 52 -6 -2 -23 2 -37 9 -26 13 -27 13 -15 -11z"/>
<path d="M3280 2741 c0 -6 4 -13 10 -16 6 -3 7 1 4 9 -7 18 -14 21 -14 7z"/>
<path d="M3105 2561 c2 -28 24 -51 48 -51 21 0 21 0 -2 16 -16 12 -20 19 -11
24 16 10 4 30 -19 30 -11 0 -17 -7 -16 -19z"/>
<path d="M3125 2496 c22 -19 41 -33 44 -31 7 8 -16 29 -51 48 -32 18 -32 18 7
-17z"/>
<path d="M3185 2510 c3 -5 13 -10 21 -10 8 0 12 5 9 10 -3 6 -13 10 -21 10 -8
0 -12 -4 -9 -10z"/>
<path d="M1130 2482 c0 -18 12 -42 21 -42 14 0 10 26 -6 40 -9 8 -15 8 -15 2z"/>
<path d="M3390 2480 c0 -13 20 -13 40 0 12 8 9 10 -12 10 -16 0 -28 -4 -28
-10z"/>
<path d="M3162 2438 c3 -7 15 -15 28 -16 21 -3 22 -2 11 12 -16 19 -44 21 -39
4z"/>
<path d="M3240 2430 c0 -5 5 -10 11 -10 5 0 7 5 4 10 -3 6 -8 10 -11 10 -2 0
-4 -4 -4 -10z"/>
<path d="M1150 2421 c0 -5 5 -13 10 -16 6 -3 10 -2 10 4 0 5 -4 13 -10 16 -5
3 -10 2 -10 -4z"/>
<path d="M3473 2313 c9 -2 23 -2 30 0 6 3 -1 5 -18 5 -16 0 -22 -2 -12 -5z"/>
<path d="M3308 2303 c7 -3 16 -2 19 1 4 3 -2 6 -13 5 -11 0 -14 -3 -6 -6z"/>
<path d="M3130 2263 c23 -9 83 -73 67 -73 -7 0 -18 5 -25 12 -9 9 -12 8 -12
-4 0 -9 10 -19 23 -23 20 -7 19 -8 -10 -14 l-33 -6 23 -29 c16 -20 29 -27 40
-23 22 8 22 24 0 30 -16 4 -16 5 1 6 10 0 16 6 13 14 -3 9 11 11 57 10 34 -1
52 1 41 5 -42 15 -127 64 -121 70 7 6 -49 32 -68 31 -6 0 -4 -3 4 -6z"/>
<path d="M1124 2232 c-6 -4 -15 -18 -19 -31 -5 -18 -4 -22 6 -16 24 14 49 38
49 47 0 10 -21 10 -36 0z"/>
<path d="M1160 2196 c0 -2 7 -9 15 -16 9 -7 15 -8 15 -2 0 5 -7 12 -15 16 -8
3 -15 4 -15 2z"/>
<path d="M3080 2190 c0 -5 5 -10 11 -10 5 0 7 5 4 10 -3 6 -8 10 -11 10 -2 0
-4 -4 -4 -10z"/>
<path d="M1095 2150 c-10 -11 -15 -20 -12 -20 4 0 16 9 27 20 11 11 16 20 12
20 -5 0 -17 -9 -27 -20z"/>
<path d="M2920 2150 c0 -5 5 -10 11 -10 5 0 7 5 4 10 -3 6 -8 10 -11 10 -2 0
-4 -4 -4 -10z"/>
<path d="M3010 2146 c0 -2 7 -7 16 -10 8 -3 12 -2 9 4 -6 10 -25 14 -25 6z"/>
<path d="M2946 2080 c10 -16 23 -31 30 -34 16 -6 27 21 12 30 -7 4 -8 3 -4 -4
4 -7 2 -12 -4 -12 -6 0 -15 11 -20 25 -5 14 -14 25 -20 25 -7 0 -4 -13 6 -30z"/>
<path d="M3170 2080 c-12 -8 -11 -10 7 -10 12 0 25 5 28 10 8 13 -15 13 -35 0z"/>
<path d="M3105 2009 c-4 -6 -5 -12 -2 -15 2 -3 7 2 10 11 7 17 1 20 -8 4z"/>
<path d="M2820 1989 c0 -5 4 -8 9 -4 5 3 17 -5 25 -17 22 -31 20 -45 -3 -24
-18 17 -19 16 -19 -18 0 -20 4 -36 9 -36 5 0 9 7 9 15 0 12 4 14 19 5 13 -7
22 -7 26 0 3 5 1 10 -4 10 -6 0 -10 3 -9 8 3 10 -22 55 -36 64 -16 11 -26 10
-26 -3z"/>
<path d="M2778 1923 c11 -16 30 -37 43 -48 l24 -20 -16 20 c-8 11 -20 32 -27
48 -6 15 -19 27 -27 27 -14 0 -14 -4 3 -27z"/>
<path d="M3026 1907 c3 -8 11 -14 19 -14 11 0 12 4 4 14 -6 7 -15 13 -20 13
-5 0 -6 -6 -3 -13z"/>
<path d="M2695 1900 c3 -5 11 -10 16 -10 6 0 7 5 4 10 -3 6 -11 10 -16 10 -6
0 -7 -4 -4 -10z"/>
<path d="M3078 1903 c7 -3 16 -2 19 1 4 3 -2 6 -13 5 -11 0 -14 -3 -6 -6z"/>
<path d="M2635 1882 c6 -5 23 -12 38 -16 21 -5 28 -3 25 6 -3 7 -20 14 -39 16
-21 2 -30 0 -24 -6z"/>
<path d="M2952 1878 c2 -7 -3 -12 -10 -10 -8 1 -11 -2 -7 -8 3 -5 10 -10 15
-10 12 0 20 29 9 35 -5 4 -8 1 -7 -7z"/>
<path d="M2425 1870 c3 -5 11 -10 16 -10 6 0 7 5 4 10 -3 6 -11 10 -16 10 -6
0 -7 -4 -4 -10z"/>
<path d="M2730 1849 c0 -5 14 -9 32 -9 36 0 31 11 -7 15 -14 2 -25 -1 -25 -6z"/>
<path d="M2680 1838 c0 -19 59 -58 86 -57 15 0 14 2 -6 10 -14 6 -37 22 -52
36 -21 21 -28 23 -28 11z"/>
<path d="M2800 1840 c0 -5 5 -10 11 -10 5 0 7 5 4 10 -3 6 -8 10 -11 10 -2 0
-4 -4 -4 -10z"/>
<path d="M2658 1793 c7 -3 16 -2 19 1 4 3 -2 6 -13 5 -11 0 -14 -3 -6 -6z"/>
<path d="M2917 1746 c-16 -12 -16 -14 -2 -20 9 -3 13 -2 10 4 -9 15 2 12 30
-6 15 -10 25 -12 25 -5 0 6 -5 11 -11 11 -5 0 -8 4 -5 9 3 5 -1 12 -10 15 -19
7 -15 8 -37 -8z"/>
<path d="M853 1718 c-22 -29 -24 -41 -3 -20 12 13 20 25 17 28 -2 2 -9 -1 -14
-8z"/>
<path d="M2807 1713 c-9 -9 12 -33 29 -33 8 0 14 -4 14 -10 0 -5 -5 -10 -12
-10 -6 0 -9 -2 -6 -5 3 -3 16 -1 29 3 l23 9 -22 14 c-12 8 -22 19 -22 26 0 14
-22 18 -33 6z"/>
<path d="M2713 1683 c-29 -6 -30 -39 -2 -48 11 -4 23 -4 26 -1 4 3 12 1 19 -5
9 -7 12 -6 10 5 -1 9 -5 19 -9 22 -12 12 -8 22 11 27 22 6 -25 6 -55 0z m12
-33 c3 -5 1 -10 -4 -10 -6 0 -11 5 -11 10 0 6 2 10 4 10 3 0 8 -4 11 -10z"/>
<path d="M2820 1604 c0 -4 68 -34 78 -34 3 0 1 5 -4 10 -11 11 -74 32 -74 24z"/>
<path d="M2755 1590 c3 -5 1 -10 -6 -10 -7 0 -10 -2 -7 -5 8 -9 38 6 32 16 -3
5 -10 9 -15 9 -6 0 -7 -4 -4 -10z"/>
<path d="M2694 1545 c33 -17 39 -19 32 -6 -4 5 -1 11 6 13 7 3 -5 5 -27 6
l-40 2 29 -15z"/>
<path d="M2757 1549 c7 -7 15 -10 18 -7 3 3 -2 9 -12 12 -14 6 -15 5 -6 -5z"/>
<path d="M2875 1550 c3 -5 8 -10 11 -10 2 0 4 5 4 10 0 6 -5 10 -11 10 -5 0
-7 -4 -4 -10z"/>
<path d="M2650 1530 c8 -5 24 -9 35 -9 l20 0 -20 9 c-11 5 -27 9 -35 9 -13 1
-13 0 0 -9z"/>
<path d="M2809 1529 c-11 -7 -11 -9 4 -9 10 0 20 -7 23 -15 4 -8 11 -15 16
-15 6 0 8 7 4 15 -3 8 0 15 6 15 17 0 4 10 -19 14 -11 3 -26 0 -34 -5z"/>
<path d="M2870 1501 c0 -13 25 -20 39 -11 10 5 8 9 -4 14 -23 8 -35 8 -35 -3z"/>
<path d="M3201 1474 c6 -8 18 -14 26 -14 20 0 8 16 -17 23 -17 4 -19 3 -9 -9z"/>
<path d="M2887 1459 c7 -7 15 -10 18 -7 3 3 -2 9 -12 12 -14 6 -15 5 -6 -5z"/>
<path d="M2645 1450 c11 -5 28 -11 38 -14 9 -3 17 -10 17 -16 0 -13 -26 -13
-51 0 -10 6 -19 7 -19 2 0 -10 67 -32 98 -32 11 0 24 -4 27 -10 8 -12 35 -13
35 -1 0 5 -10 12 -22 16 l-23 8 22 4 c12 2 30 0 39 -5 19 -10 54 -4 54 9 0 5
-22 9 -50 9 -38 0 -50 4 -50 15 0 8 -7 15 -16 15 -8 0 -12 -5 -8 -11 8 -13
-35 -3 -50 12 -6 5 -21 9 -35 8 -24 0 -24 -1 -6 -9z"/>
<path d="M2808 1433 c7 -3 16 -2 19 1 4 3 -2 6 -13 5 -11 0 -14 -3 -6 -6z"/>
<path d="M2944 1414 c15 -14 31 -22 35 -19 7 7 -39 45 -54 44 -5 0 3 -11 19
-25z"/>
<path d="M3395 1400 c3 -5 8 -10 11 -10 2 0 4 5 4 10 0 6 -5 10 -11 10 -5 0
-7 -4 -4 -10z"/>
<path d="M2905 1390 c-18 -7 -17 -8 8 -15 26 -7 26 -8 10 -21 -17 -12 -16 -13
9 -14 21 0 28 -6 33 -29 3 -16 16 -33 30 -39 29 -13 34 1 8 18 -15 9 -13 10
10 5 19 -4 26 -2 22 5 -3 5 -15 10 -25 10 -20 0 -33 13 -24 23 4 3 15 1 25 -6
14 -8 21 -9 30 0 8 8 -2 15 -35 28 -25 10 -46 21 -46 25 0 12 -33 18 -55 10z"/>
<path d="M2998 1373 c7 -3 16 -2 19 1 4 3 -2 6 -13 5 -11 0 -14 -3 -6 -6z"/>
<path d="M3132 1364 c10 -10 20 -15 24 -12 3 4 -5 12 -18 18 -22 12 -22 12 -6
-6z"/>
<path d="M2563 1340 c4 -16 0 -20 -21 -21 -23 -1 -22 -3 8 -8 19 -4 40 -5 47
-3 19 6 8 35 -17 44 -19 7 -22 6 -17 -12z"/>
<path d="M2768 1353 c7 -3 16 -2 19 1 4 3 -2 6 -13 5 -11 0 -14 -3 -6 -6z"/>
<path d="M2642 1324 c10 -10 20 -16 22 -13 3 3 -5 11 -17 18 -21 13 -21 12 -5
-5z"/>
<path d="M2925 1320 c3 -5 10 -10 16 -10 5 0 9 5 9 10 0 6 -7 10 -16 10 -8 0
-12 -4 -9 -10z"/>
<path d="M3100 1314 c0 -2 14 -10 30 -19 17 -9 30 -12 30 -7 0 4 -13 13 -30
19 -16 6 -30 10 -30 7z"/>
<path d="M3185 1310 c3 -5 10 -10 16 -10 5 0 9 5 9 10 0 6 -7 10 -16 10 -8 0
-12 -4 -9 -10z"/>
<path d="M3082 1278 c8 -12 20 -24 27 -26 20 -7 -5 34 -25 42 -15 6 -15 4 -2
-16z"/>
<path d="M2825 1279 c8 -11 -25 -40 -37 -33 -5 3 -8 3 -8 0 0 -3 9 -10 20 -16
16 -9 18 -8 14 5 -5 12 3 15 42 15 34 0 44 3 34 9 -8 6 -17 8 -21 5 -4 -2 -9
3 -13 11 -3 8 -13 15 -21 15 -9 0 -13 -5 -10 -11z"/>
<path d="M3150 1266 c0 -2 8 -10 18 -17 15 -13 16 -12 3 4 -13 16 -21 21 -21
13z"/>
<path d="M2930 1240 c8 -5 34 -10 57 -10 23 0 48 -6 55 -13 8 -8 23 -11 38 -7
23 6 23 7 5 13 -27 8 -135 27 -154 27 -14 0 -14 -1 -1 -10z"/>
<path d="M2960 1210 c14 -4 18 -9 10 -9 -13 -1 -13 -3 1 -14 9 -7 14 -17 12
-24 -2 -6 5 -17 16 -23 24 -13 30 -53 6 -44 -32 13 -13 -6 20 -20 37 -16 37
-19 7 -66 -2 -2 -7 2 -12 10 -7 12 -12 12 -21 3 -10 -10 -8 -18 11 -38 22 -23
22 -25 4 -26 -10 -1 -22 -1 -26 0 -5 0 -8 -8 -8 -19 0 -23 29 -27 48 -8 9 9
15 9 24 0 17 -17 31 -15 24 3 -5 13 10 20 37 16 4 0 7 4 7 9 0 6 14 10 31 10
24 0 30 4 25 16 -8 22 19 82 48 105 14 11 24 28 23 39 -1 10 -3 17 -5 15 -6
-5 -62 54 -62 65 0 6 -4 10 -8 10 -10 0 -9 -30 2 -48 4 -7 1 -14 -7 -18 -18
-6 -16 -26 3 -50 14 -16 13 -16 -17 -1 -40 21 -57 22 -49 2 3 -8 1 -15 -5 -15
-6 0 -8 -4 -4 -9 6 -11 -13 -26 -22 -17 -9 8 -21 85 -14 88 3 2 -5 14 -18 28
l-24 25 7 -27 c3 -16 3 -28 -1 -28 -13 0 -28 14 -29 28 -1 6 -2 19 -2 27 -1
10 -12 15 -29 14 l-28 -1 25 -8z m90 -120 c0 -5 -2 -10 -4 -10 -3 0 -8 5 -11
10 -3 6 -1 10 4 10 6 0 11 -4 11 -10z"/>
<path d="M3120 1200 c8 -5 20 -10 25 -10 6 0 3 5 -5 10 -8 5 -19 10 -25 10 -5
0 -3 -5 5 -10z"/>
<path d="M2447 1193 c-16 -15 -5 -23 31 -23 l37 1 -25 14 c-29 16 -34 17 -43
8z"/>
<path d="M2690 1166 c0 -2 7 -7 16 -10 8 -3 12 -2 9 4 -6 10 -25 14 -25 6z"/>
<path d="M749 1123 c-13 -16 -12 -17 4 -4 9 7 17 15 17 17 0 8 -8 3 -21 -13z"/>
<path d="M504 1105 c-5 -19 0 -30 17 -45 30 -24 39 -25 41 -2 3 33 -3 56 -15
64 -22 14 -37 8 -43 -17z"/>
<path d="M2870 1110 c0 -5 7 -10 16 -10 8 0 12 5 9 10 -3 6 -10 10 -16 10 -5
0 -9 -4 -9 -10z"/>
<path d="M3070 1104 c0 -8 5 -12 10 -9 6 3 10 10 10 16 0 5 -4 9 -10 9 -5 0
-10 -7 -10 -16z"/>
<path d="M4834 1077 c9 -42 18 -50 49 -38 36 14 26 45 -20 59 l-35 11 6 -32z"/>
<path d="M2319 1084 c18 -8 36 -13 39 -10 6 6 -43 26 -61 25 -7 0 3 -7 22 -15z"/>
<path d="M2828 1093 c-20 -5 -23 -18 -8 -28 6 -3 10 -1 10 4 0 6 9 11 21 11
11 0 17 5 14 10 -6 10 -9 11 -37 3z"/>
<path d="M750 1073 c-31 -12 -70 -45 -64 -54 4 -6 14 -3 25 7 17 15 19 15 19
1 0 -8 -7 -22 -15 -31 -18 -17 -21 -106 -4 -106 6 0 9 -7 5 -15 -3 -8 0 -15 6
-15 7 0 7 -4 1 -12 -8 -12 -19 -44 -38 -115 -4 -13 -11 -23 -16 -23 -25 0 -43
-33 -40 -76 2 -36 -3 -51 -33 -90 -20 -26 -36 -52 -36 -58 0 -6 -12 15 -27 47
-25 55 -25 59 -10 97 12 32 13 40 2 40 -7 0 -21 -21 -31 -47 -16 -46 -40 -76
-79 -99 -13 -7 -16 -14 -9 -25 5 -8 9 -41 9 -74 0 -49 3 -60 17 -60 22 0 32
-11 23 -25 -6 -9 -10 -9 -16 1 -5 9 -10 -1 -15 -30 -8 -48 -26 -61 -52 -38
-34 31 -73 -30 -76 -117 -1 -50 -4 -61 -18 -60 -10 1 -23 -13 -34 -37 -9 -22
-21 -39 -26 -39 -4 0 -8 -4 -8 -10 0 -6 43 -10 108 -10 l107 0 24 44 c13 25
38 55 55 67 18 12 37 34 43 48 7 14 19 43 27 64 9 23 51 74 100 121 68 68 87
93 101 137 10 30 26 63 37 74 10 11 32 41 49 68 30 46 48 53 50 19 1 -9 5 -1
8 18 8 37 -8 91 -34 120 -8 9 -15 24 -15 33 0 10 -8 17 -19 17 -14 0 -18 5
-14 20 3 11 0 20 -6 20 -6 0 -11 16 -11 35 0 20 -6 38 -12 40 -7 3 -14 19 -15
37 -3 38 -20 59 -32 39 -7 -11 -10 -10 -13 5 -3 10 2 27 10 37 16 18 16 19 -8
10z"/>
<path d="M2446 1016 c10 -8 21 -12 24 -10 5 6 -21 24 -34 24 -6 0 -1 -6 10
-14z"/>
<path d="M2414 994 c-2 -21 29 -44 42 -31 8 7 -6 32 -24 43 -14 9 -17 7 -18
-12z"/>
<path d="M2190 961 c0 -5 8 -15 18 -22 15 -12 16 -12 5 2 -7 9 -10 19 -6 22 3
4 1 7 -5 7 -7 0 -12 -4 -12 -9z"/>
<path d="M525 930 c-12 -14 -30 -30 -40 -36 -16 -9 -20 -23 -22 -65 -3 -73 1
-83 27 -67 11 7 20 18 20 25 0 7 9 30 21 52 13 25 19 53 17 78 l-3 38 -20 -25z"/>
<path d="M2294 915 c5 -13 2 -14 -15 -4 -18 9 -20 8 -12 -5 5 -9 25 -24 45
-34 l36 -19 -25 39 c-26 39 -40 50 -29 23z"/>
<path d="M2941 895 c0 -5 6 -19 14 -29 8 -11 15 -15 15 -10 0 6 -7 19 -15 30
-8 10 -14 15 -14 9z"/>
<path d="M2736 815 c4 -8 11 -15 16 -15 6 0 5 6 -2 15 -7 8 -14 15 -16 15 -2
0 -1 -7 2 -15z"/>
<path d="M2890 818 c0 -8 12 -30 26 -49 22 -29 25 -31 19 -9 -10 32 -45 78
-45 58z"/>
<path d="M540 792 c0 -11 -6 -25 -14 -31 -7 -6 -11 -22 -8 -36 5 -29 22 -44
22 -20 0 9 6 23 14 30 8 8 11 25 9 40 -6 31 -23 44 -23 17z"/>
<path d="M1116 788 c-2 -7 -8 -28 -14 -47 -7 -19 -10 -37 -8 -39 5 -5 46 73
46 88 0 14 -20 13 -24 -2z"/>
<path d="M1070 779 c0 -5 5 -7 10 -4 6 3 10 8 10 11 0 2 -4 4 -10 4 -5 0 -10
-5 -10 -11z"/>
<path d="M2380 776 c0 -9 5 -16 10 -16 6 0 10 4 10 9 0 6 -4 13 -10 16 -5 3
-10 -1 -10 -9z"/>
<path d="M2745 757 c1 -12 6 -21 11 -21 5 1 20 -17 33 -39 33 -55 38 -32 6 25
-29 52 -52 68 -50 35z"/>
<path d="M2647 759 c7 -7 15 -10 18 -7 3 3 -2 9 -12 12 -14 6 -15 5 -6 -5z"/>
<path d="M2790 750 c0 -5 5 -10 11 -10 5 0 7 5 4 10 -3 6 -8 10 -11 10 -2 0
-4 -4 -4 -10z"/>
<path d="M2863 737 c4 -12 57 -29 57 -18 0 3 -14 12 -31 18 -22 9 -29 9 -26 0z"/>
<path d="M2841 728 c-2 -31 11 -48 36 -48 13 0 22 4 18 10 -3 5 -12 7 -19 4
-9 -3 -18 5 -24 23 -6 16 -11 21 -11 11z"/>
<path d="M187 709 c-6 -21 11 -59 25 -59 15 0 15 17 -2 48 -16 30 -18 31 -23
11z"/>
<path d="M1180 641 c0 -5 5 -13 10 -16 6 -3 10 -2 10 4 0 5 -4 13 -10 16 -5 3
-10 2 -10 -4z"/>
<path d="M2980 621 c0 -6 -12 -17 -27 -25 -24 -13 -25 -15 -8 -16 11 0 30 -3
43 -6 26 -8 31 18 7 42 -8 9 -15 11 -15 5z"/>
<path d="M1160 530 c0 -19 3 -21 12 -12 9 9 9 15 0 24 -9 9 -12 7 -12 -12z"/>
<path d="M2851 530 c0 -8 4 -22 9 -30 12 -18 12 -2 0 25 -6 13 -9 15 -9 5z"/>
<path d="M170 346 c0 -29 10 -38 30 -26 11 7 12 14 4 27 -17 27 -34 27 -34 -1z"/>
<path d="M1105 301 c-19 -39 -44 -79 -56 -90 -17 -16 -20 -26 -14 -53 5 -18 9
-53 10 -77 1 -39 0 -42 -12 -25 -7 10 -13 21 -13 26 0 4 -6 8 -13 8 -11 0 -37
-59 -37 -84 0 -3 27 -6 60 -6 l60 0 0 38 c0 20 9 54 20 75 12 21 30 63 41 92
15 41 26 56 49 63 15 6 31 8 33 5 3 -3 3 5 0 17 -5 17 -11 20 -31 15 -22 -5
-24 -4 -13 9 10 12 10 16 2 16 -7 0 -9 5 -5 12 5 8 0 9 -15 5 -17 -4 -21 -2
-17 9 3 8 1 14 -4 14 -5 0 -25 -31 -45 -69z"/>
<path d="M4526 233 c8 -33 12 -39 20 -30 9 9 -5 57 -16 57 -6 0 -8 -11 -4 -27z"/>
<path d="M138 135 c3 -43 1 -60 -13 -75 -22 -24 -16 -54 13 -58 16 -2 22 2 22
15 0 10 7 36 14 58 13 36 12 43 -5 77 -11 21 -23 38 -28 38 -4 0 -6 -25 -3
-55z"/>
<path d="M1781 174 c0 -11 3 -14 6 -6 3 7 2 16 -1 19 -3 4 -6 -2 -5 -13z"/>
<path d="M1812 170 c0 -14 2 -19 5 -12 2 6 2 18 0 25 -3 6 -5 1 -5 -13z"/>
<path d="M1715 51 c-3 -5 -1 -12 5 -16 5 -3 10 1 10 9 0 18 -6 21 -15 7z"/>
<path d="M1797 33 c-13 -12 -7 -33 8 -33 8 0 15 9 15 20 0 20 -11 26 -23 13z"/>
</g>
</svg>
